  0
SECTION
  2
HEADER
  9
$ACADVER
  1
AC1015
  9
$ACADMAINTVER
 70
     6
  9
$DWGCODEPAGE
  3
ANSI_1252
  9
$INSBASE
 10
0.0
 20
0.0
 30
0.0
  9
$EXTMIN
 10
-122.2366944096
 20
-148.6009276851
 30
0.0
  9
$EXTMAX
 10
181.6789247872
 20
89.728776721
 30
0.0
  9
$LIMMIN
 10
0.0
 20
0.0
  9
$LIMMAX
 10
420.0
 20
297.0
  9
$ORTHOMODE
 70
     0
  9
$REGENMODE
 70
     1
  9
$FILLMODE
 70
     1
  9
$QTEXTMODE
 70
     0
  9
$MIRRTEXT
 70
     1
  9
$LTSCALE
 40
1.0
  9
$ATTMODE
 70
     1
  9
$TEXTSIZE
 40
2.5
  9
$TRACEWID
 40
1.0
  9
$TEXTSTYLE
  7
Standard
  9
$CLAYER
  8
0
  9
$CELTYPE
  6
ByLayer
  9
$CECOLOR
 62
   256
  9
$CELTSCALE
 40
1.0
  9
$DISPSILH
 70
     0
  9
$DIMSCALE
 40
1.0
  9
$DIMASZ
 40
6.0
  9
$DIMEXO
 40
1.0
  9
$DIMDLI
 40
3.75
  9
$DIMRND
 40
0.0
  9
$DIMDLE
 40
0.0
  9
$DIMEXE
 40
1.0
  9
$DIMTP
 40
0.0
  9
$DIMTM
 40
0.0
  9
$DIMTXT
 40
2.5
  9
$DIMCEN
 40
2.5
  9
$DIMTSZ
 40
0.0
  9
$DIMTOL
 70
     0
  9
$DIMLIM
 70
     0
  9
$DIMTIH
 70
     1
  9
$DIMTOH
 70
     1
  9
$DIMSE1
 70
     0
  9
$DIMSE2
 70
     0
  9
$DIMTAD
 70
     1
  9
$DIMZIN
 70
     0
  9
$DIMBLK
  1

  9
$DIMASO
 70
     1
  9
$DIMSHO
 70
     1
  9
$DIMPOST
  1

  9
$DIMAPOST
  1

  9
$DIMALT
 70
     0
  9
$DIMALTD
 70
     3
  9
$DIMALTF
 40
0.0393700787
  9
$DIMLFAC
 40
1.0
  9
$DIMTOFL
 70
     1
  9
$DIMTVP
 40
0.0
  9
$DIMTIX
 70
     0
  9
$DIMSOXD
 70
     0
  9
$DIMSAH
 70
     0
  9
$DIMBLK1
  1

  9
$DIMBLK2
  1

  9
$DIMSTYLE
  2
ISO-25
  9
$DIMCLRD
 70
     0
  9
$DIMCLRE
 70
     0
  9
$DIMCLRT
 70
     0
  9
$DIMTFAC
 40
1.0
  9
$DIMGAP
 40
1.524
  9
$DIMJUST
 70
     0
  9
$DIMSD1
 70
     0
  9
$DIMSD2
 70
     0
  9
$DIMTOLJ
 70
     0
  9
$DIMTZIN
 70
     0
  9
$DIMALTZ
 70
     0
  9
$DIMALTTZ
 70
     0
  9
$DIMUPT
 70
     0
  9
$DIMDEC
 70
     2
  9
$DIMTDEC
 70
     2
  9
$DIMALTU
 70
     2
  9
$DIMALTTD
 70
     3
  9
$DIMTXSTY
  7
Standard
  9
$DIMAUNIT
 70
     0
  9
$DIMADEC
 70
     2
  9
$DIMALTRND
 40
0.0
  9
$DIMAZIN
 70
     0
  9
$DIMDSEP
 70
    44
  9
$DIMATFIT
 70
     3
  9
$DIMFRAC
 70
     0
  9
$DIMLDRBLK
  1

  9
$DIMLUNIT
 70
     2
  9
$DIMLWD
 70
    -2
  9
$DIMLWE
 70
    -2
  9
$DIMTMOVE
 70
     0
  9
$LUNITS
 70
     2
  9
$LUPREC
 70
     2
  9
$SKETCHINC
 40
1.0
  9
$FILLETRAD
 40
10.0
  9
$AUNITS
 70
     0
  9
$AUPREC
 70
     2
  9
$MENU
  1
.
  9
$ELEVATION
 40
0.0
  9
$PELEVATION
 40
0.0
  9
$THICKNESS
 40
0.0
  9
$LIMCHECK
 70
     0
  9
$CHAMFERA
 40
10.0
  9
$CHAMFERB
 40
10.0
  9
$CHAMFERC
 40
20.0
  9
$CHAMFERD
 40
0.0
  9
$SKPOLY
 70
     0
  9
$TDCREATE
 40
2456483.977965359
  9
$TDUCREATE
 40
2456483.477965359
  9
$TDUPDATE
 40
2456483.977990822
  9
$TDUUPDATE
 40
2456483.477990822
  9
$TDINDWG
 40
0.0000000116
  9
$TDUSRTIMER
 40
0.0000000116
  9
$USRTIMER
 70
     1
  9
$ANGBASE
 50
0.0
  9
$ANGDIR
 70
     0
  9
$PDMODE
 70
     0
  9
$PDSIZE
 40
-1.0
  9
$PLINEWID
 40
0.0
  9
$SPLFRAME
 70
     0
  9
$SPLINETYPE
 70
     6
  9
$SPLINESEGS
 70
     8
  9
$HANDSEED
  5
325
  9
$SURFTAB1
 70
     6
  9
$SURFTAB2
 70
     6
  9
$SURFTYPE
 70
     6
  9
$SURFU
 70
     6
  9
$SURFV
 70
     6
  9
$UCSBASE
  2

  9
$UCSNAME
  2

  9
$UCSORG
 10
0.0
 20
0.0
 30
0.0
  9
$UCSXDIR
 10
1.0
 20
0.0
 30
0.0
  9
$UCSYDIR
 10
0.0
 20
1.0
 30
0.0
  9
$UCSORTHOREF
  2

  9
$UCSORTHOVIEW
 70
     0
  9
$UCSORGTOP
 10
0.0
 20
0.0
 30
0.0
  9
$UCSORGBOTTOM
 10
0.0
 20
0.0
 30
0.0
  9
$UCSORGLEFT
 10
0.0
 20
0.0
 30
0.0
  9
$UCSORGRIGHT
 10
0.0
 20
0.0
 30
0.0
  9
$UCSORGFRONT
 10
0.0
 20
0.0
 30
0.0
  9
$UCSORGBACK
 10
0.0
 20
0.0
 30
0.0
  9
$PUCSBASE
  2

  9
$PUCSNAME
  2

  9
$PUCSORG
 10
0.0
 20
0.0
 30
0.0
  9
$PUCSXDIR
 10
1.0
 20
0.0
 30
0.0
  9
$PUCSYDIR
 10
0.0
 20
1.0
 30
0.0
  9
$PUCSORTHOREF
  2

  9
$PUCSORTHOVIEW
 70
     0
  9
$PUCSORGTOP
 10
0.0
 20
0.0
 30
0.0
  9
$PUCSORGBOTTOM
 10
0.0
 20
0.0
 30
0.0
  9
$PUCSORGLEFT
 10
0.0
 20
0.0
 30
0.0
  9
$PUCSORGRIGHT
 10
0.0
 20
0.0
 30
0.0
  9
$PUCSORGFRONT
 10
0.0
 20
0.0
 30
0.0
  9
$PUCSORGBACK
 10
0.0
 20
0.0
 30
0.0
  9
$USERI1
 70
     0
  9
$USERI2
 70
     0
  9
$USERI3
 70
     0
  9
$USERI4
 70
     0
  9
$USERI5
 70
     0
  9
$USERR1
 40
0.0
  9
$USERR2
 40
0.0
  9
$USERR3
 40
0.0
  9
$USERR4
 40
0.0
  9
$USERR5
 40
0.0
  9
$WORLDVIEW
 70
     1
  9
$SHADEDGE
 70
     3
  9
$SHADEDIF
 70
    70
  9
$TILEMODE
 70
     1
  9
$MAXACTVP
 70
    64
  9
$PINSBASE
 10
0.0
 20
0.0
 30
0.0
  9
$PLIMCHECK
 70
     0
  9
$PEXTMIN
 10
1.0000000000E+20
 20
1.0000000000E+20
 30
1.0000000000E+20
  9
$PEXTMAX
 10
-1.0000000000E+20
 20
-1.0000000000E+20
 30
-1.0000000000E+20
  9
$PLIMMIN
 10
0.0
 20
0.0
  9
$PLIMMAX
 10
420.0
 20
297.0
  9
$UNITMODE
 70
     0
  9
$VISRETAIN
 70
     1
  9
$PLINEGEN
 70
     0
  9
$PSLTSCALE
 70
     1
  9
$TREEDEPTH
 70
  3020
  9
$CMLSTYLE
  2
Standard
  9
$CMLJUST
 70
     0
  9
$CMLSCALE
 40
20.0
  9
$PROXYGRAPHICS
 70
     1
  9
$MEASUREMENT
 70
     1
  9
$CELWEIGHT
370
    -1
  9
$ENDCAPS
280
     0
  9
$JOINSTYLE
280
     0
  9
$LWDISPLAY
290
     1
  9
$INSUNITS
 70
     4
  9
$HYPERLINKBASE
  1

  9
$STYLESHEET
  1

  9
$XEDIT
290
     1
  9
$CEPSNTYPE
380
     0
  9
$PSTYLEMODE
290
     1
  9
$FINGERPRINTGUID
  2
{BCCDBFDC-9C8B-457D-B3A7-40C8C88FB65B}
  9
$VERSIONGUID
  2
{FAEB1C32-E019-11D5-929B-00C0DF256EC4}
  9
$EXTNAMES
290
     1
  9
$PSVPSCALE
 40
0.0
  9
$OLESTARTUP
290
     0
  0
ENDSEC
  0
SECTION
  2
CLASSES
  0
CLASS
  1
ACDBDICTIONARYWDFLT
  2
AcDbDictionaryWithDefault
  3
ObjectDBX Classes
 90
        0
280
     0
281
     0
  0
CLASS
  1
VISUALSTYLE
  2
AcDbVisualStyle
  3
ObjectDBX Classes
 90
     4095
280
     0
281
     0
  0
CLASS
  1
MATERIAL
  2
AcDbMaterial
  3
ObjectDBX Classes
 90
     1153
280
     0
281
     0
  0
CLASS
  1
ACDBPLACEHOLDER
  2
AcDbPlaceHolder
  3
ObjectDBX Classes
 90
        0
280
     0
281
     0
  0
CLASS
  1
LAYOUT
  2
AcDbLayout
  3
ObjectDBX Classes
 90
        0
280
     0
281
     0
  0
ENDSEC
  0
SECTION
  2
TABLES
  0
TABLE
  2
VPORT
  5
8
330
0
100
AcDbSymbolTable
 70
     1
  0
VPORT
  5
29
330
8
100
AcDbSymbolTableRecord
100
AcDbViewportTableRecord
  2
*Active
 70
     0
 10
0.0
 20
0.0
 11
1.0
 21
1.0
 12
29.7211151888
 22
-29.436075482
 13
0.0
 23
0.0
 14
10.0
 24
10.0
 15
10.0
 25
10.0
 16
0.0
 26
0.0
 36
1.0
 17
0.0
 27
0.0
 37
0.0
 40
243.0962984942
 41
1.2751898466
 42
50.0
 43
0.0
 44
0.0
 50
0.0
 51
0.0
 71
     0
 72
   100
 73
     1
 74
     3
 75
     0
 76
     0
 77
     0
 78
     0
281
     0
 65
     1
110
0.0
120
0.0
130
0.0
111
1.0
121
0.0
131
0.0
112
0.0
122
1.0
132
0.0
 79
     0
146
0.0
  0
ENDTAB
  0
TABLE
  2
LTYPE
  5
5
330
0
100
AcDbSymbolTable
 70
     6
  0
LTYPE
  5
14
330
5
100
AcDbSymbolTableRecord
100
AcDbLinetypeTableRecord
  2
ByBlock
 70
     0
  3

 72
    65
 73
     0
 40
0.0
  0
LTYPE
  5
15
330
5
100
AcDbSymbolTableRecord
100
AcDbLinetypeTableRecord
  2
ByLayer
 70
     0
  3

 72
    65
 73
     0
 40
0.0
  0
LTYPE
  5
16
330
5
100
AcDbSymbolTableRecord
100
AcDbLinetypeTableRecord
  2
Continuous
 70
     0
  3
Solid line
 72
    65
 73
     0
 40
0.0
  0
LTYPE
  5
3F
330
5
100
AcDbSymbolTableRecord
100
AcDbLinetypeTableRecord
  2
HIDDEN
 70
     0
  3
Hidden __ __ __ __ __ __ __ __ __ __ __ __ __ __
 72
    65
 73
     2
 40
1.905
 49
1.27
 74
     0
 49
-0.635
 74
     0
  0
LTYPE
  5
40
330
5
100
AcDbSymbolTableRecord
100
AcDbLinetypeTableRecord
  2
PHANTOM
 70
     0
  3
Phantom ______  __  __  ______  __  __  ______
 72
    65
 73
     6
 40
12.7
 49
6.35
 74
     0
 49
-1.27
 74
     0
 49
1.27
 74
     0
 49
-1.27
 74
     0
 49
1.27
 74
     0
 49
-1.27
 74
     0
  0
LTYPE
  5
41
330
5
100
AcDbSymbolTableRecord
100
AcDbLinetypeTableRecord
  2
CENTER
 70
     0
  3
Center ____ _ ____ _ ____ _ ____ _ ____ _ ____
 72
    65
 73
     4
 40
10.16
 49
6.35
 74
     0
 49
-1.27
 74
     0
 49
1.27
 74
     0
 49
-1.27
 74
     0
  0
LTYPE
  5
42
330
5
100
AcDbSymbolTableRecord
100
AcDbLinetypeTableRecord
  2
CENTERX2
 70
     0
  3
Center (2x) ________  __  ________  __  _____
 72
    65
 73
     4
 40
20.32
 49
12.7
 74
     0
 49
-2.54
 74
     0
 49
2.54
 74
     0
 49
-2.54
 74
     0
  0
LTYPE
  5
43
330
5
100
AcDbSymbolTableRecord
100
AcDbLinetypeTableRecord
  2
DOT2
 70
     0
  3
Dot (.5x) ........................................
 72
    65
 73
     2
 40
0.635
 49
0.0
 74
     0
 49
-0.635
 74
     0
  0
ENDTAB
  0
TABLE
  2
LAYER
  5
2
330
0
100
AcDbSymbolTable
 70
     1
  0
LAYER
  5
10
330
2
100
AcDbSymbolTableRecord
100
AcDbLayerTableRecord
  2
0
 70
     0
 62
     7
  6
Continuous
370
    -3
390
F
  0
ENDTAB
  0
TABLE
  2
STYLE
  5
3
330
0
100
AcDbSymbolTable
 70
     2
  0
STYLE
  5
11
330
3
100
AcDbSymbolTableRecord
100
AcDbTextStyleTableRecord
  2
Standard
 70
     0
 40
0.0
 41
1.0
 50
0.0
 71
     0
 42
2.5
  3
txt
  4

  0
STYLE
  5
322
330
3
100
AcDbSymbolTableRecord
100
AcDbTextStyleTableRecord
  2
SLDTEXTSTYLE0
 70
     0
 40
0.0
 41
0.7
 50
0.0
 71
     0
 42
0.2
  3
TXT
  4

  0
ENDTAB
  0
TABLE
  2
VIEW
  5
6
330
0
100
AcDbSymbolTable
 70
     0
  0
ENDTAB
  0
TABLE
  2
UCS
  5
7
330
0
100
AcDbSymbolTable
 70
     0
  0
ENDTAB
  0
TABLE
  2
APPID
  5
9
330
0
100
AcDbSymbolTable
 70
     1
  0
APPID
  5
12
330
9
100
AcDbSymbolTableRecord
100
AcDbRegAppTableRecord
  2
ACAD
 70
     0
  0
ENDTAB
  0
TABLE
  2
DIMSTYLE
  5
A
330
0
100
AcDbSymbolTable
 70
     1
100
AcDbDimStyleTable
  0
DIMSTYLE
105
27
330
A
100
AcDbSymbolTableRecord
100
AcDbDimStyleTableRecord
  2
ISO-25
 70
     0
 41
2.5
 42
0.625
 43
3.75
 44
1.25
 73
     0
 74
     0
 77
     1
 78
     8
140
2.5
141
2.5
143
0.0393700787
147
0.625
171
     3
172
     1
178
     0
271
     2
272
     2
274
     3
278
    44
283
     0
284
     8
340
11
  0
ENDTAB
  0
TABLE
  2
BLOCK_RECORD
  5
1
330
0
100
AcDbSymbolTable
 70
     1
  0
BLOCK_RECORD
  5
1F
330
1
100
AcDbSymbolTableRecord
100
AcDbBlockTableRecord
  2
*Model_Space
340
22
  0
BLOCK_RECORD
  5
1B
330
1
100
AcDbSymbolTableRecord
100
AcDbBlockTableRecord
  2
*Paper_Space
340
1E
  0
BLOCK_RECORD
  5
23
330
1
100
AcDbSymbolTableRecord
100
AcDbBlockTableRecord
  2
*Paper_Space0
340
26
  0
ENDTAB
  0
ENDSEC
  0
SECTION
  2
BLOCKS
  0
BLOCK
  5
20
330
1F
100
AcDbEntity
  8
0
100
AcDbBlockBegin
  2
*Model_Space
 70
     0
 10
0.0
 20
0.0
 30
0.0
  3
*Model_Space
  1

  0
ENDBLK
  5
21
330
1F
100
AcDbEntity
  8
0
100
AcDbBlockEnd
  0
BLOCK
  5
1C
330
1B
100
AcDbEntity
 67
     1
  8
0
100
AcDbBlockBegin
  2
*Paper_Space
 70
     0
 10
0.0
 20
0.0
 30
0.0
  3
*Paper_Space
  1

  0
ENDBLK
  5
1D
330
1B
100
AcDbEntity
 67
     1
  8
0
100
AcDbBlockEnd
  0
BLOCK
  5
24
330
23
100
AcDbEntity
  8
0
100
AcDbBlockBegin
  2
*Paper_Space0
 70
     0
 10
0.0
 20
0.0
 30
0.0
  3
*Paper_Space0
  1

  0
ENDBLK
  5
25
330
23
100
AcDbEntity
  8
0
100
AcDbBlockEnd
  0
ENDSEC
  0
SECTION
  2
ENTITIES
  0
SPLINE
  5
44
330
1F
100
AcDbEntity
  8
0
  6
Continuous
 62
     7
370
    15
100
AcDbSpline
210
0.0
220
0.0
230
1.0
 70
     8
 71
     3
 72
    15
 73
    11
 74
     0
 42
0.00000001
 43
0.00000001
 12
1.0
 22
0.0
 32
0.0
 13
1.0
 23
0.0
 33
0.0
 40
0.0
 40
0.0
 40
0.0
 40
0.0
 40
0.0713337375257346
 40
0.2205236384088713
 40
0.354009530860004
 40
0.4763873520135737
 40
0.6072877912386608
 40
0.735027294990414
 40
0.8716417310845943
 40
0.9999999999999999
 40
0.9999999999999999
 40
0.9999999999999999
 40
0.9999999999999999
 10
78.95548335384036
 20
-4.152788353841034
 30
0.0
 10
79.58008362309505
 20
-4.422686584378978
 30
0.0
 10
81.51099498011615
 20
-5.257059517338955
 30
0.0
 10
84.53796207730707
 20
-6.716283619370635
 30
0.0
 10
87.92659123028052
 20
-8.49646916904766
 30
0.0
 10
91.05560910447569
 20
-10.34311117296991
 30
0.0
 10
94.00668971916245
 20
-12.32509926194355
 30
0.0
 10
96.93832380463063
 20
-14.52586026481328
 30
0.0
 10
99.72955735696257
 20
-16.83785409024378
 30
0.0
 10
101.4883045060819
 20
-18.51017947633162
 30
0.0
 10
102.3402780688407
 20
-19.32028854629696
 30
0.0
  0
SPLINE
  5
45
330
1F
100
AcDbEntity
  8
0
  6
Continuous
 62
     7
370
    15
100
AcDbSpline
210
0.0
220
0.0
230
1.0
 70
     8
 71
     3
 72
    13
 73
     9
 74
     0
 42
0.00000001
 43
0.00000001
 12
1.0
 22
0.0
 32
0.0
 13
1.0
 23
0.0
 33
0.0
 40
0.0
 40
0.0
 40
0.0
 40
0.0
 40
0.072933134062509
 40
0.2659514091601543
 40
0.4593731561545467
 40
0.6532063728282472
 40
0.8474560371963102
 40
0.9999999999999999
 40
0.9999999999999999
 40
0.9999999999999999
 40
0.9999999999999999
 10
147.8769895257934
 20
12.22255529747493
 30
0.0
 10
147.2552348753084
 20
12.84639200977027
 30
0.0
 10
144.9880002696125
 20
15.1212188748627
 30
0.0
 10
140.9043271257905
 20
18.9091438595498
 30
0.0
 10
135.6305636483021
 20
23.58782080488755
 30
0.0
 10
130.1790984666656
 20
28.11897992658276
 30
0.0
 10
124.991799326982
 20
32.21342140630795
 30
0.0
 10
121.5560545015796
 20
34.72431334252994
 30
0.0
 10
120.0447749111113
 20
35.8287782926123
 30
0.0
  0
SPLINE
  5
4A
330
1F
100
AcDbEntity
  8
0
  6
Continuous
 62
     7
370
    15
100
AcDbSpline
210
0.0
220
0.0
230
1.0
 70
     8
 71
     3
 72
     9
 73
     5
 74
     0
 42
0.00000001
 43
0.00000001
 12
1.0
 22
0.0
 32
0.0
 13
1.0
 23
0.0
 33
0.0
 40
0.0
 40
0.0
 40
0.0
 40
0.0
 40
0.3588634407319854
 40
1.0
 40
1.0
 40
1.0
 40
1.0
 10
120.0581180331411
 20
35.84342489174531
 30
0.0
 10
120.0218600871853
 20
35.8725499182903
 30
0.0
 10
119.9208245905576
 20
35.95370899787105
 30
0.0
 10
119.8674817537694
 20
36.04889434556267
 30
0.0
 10
119.8332817109294
 20
36.10992115187442
 30
0.0
  0
SPLINE
  5
54
330
1F
100
AcDbEntity
  8
0
  6
Continuous
 62
     7
370
    15
100
AcDbSpline
210
0.0
220
0.0
230
1.0
 70
     8
 71
     3
 72
     9
 73
     5
 74
     0
 42
0.00000001
 43
0.00000001
 12
1.0
 22
0.0
 32
0.0
 13
1.0
 23
0.0
 33
0.0
 40
0.0
 40
0.0
 40
0.0
 40
0.0
 40
0.7118907168005367
 40
1.0
 40
1.0
 40
1.0
 40
1.0
 10
-50.63455253440148
 20
-59.82143731168618
 30
0.0
 10
-50.50510006962074
 20
-59.39147702771878
 30
0.0
 10
-50.32325689941824
 20
-58.78750752253999
 30
0.0
 10
-50.11421101676796
 20
-58.18898530702696
 30
0.0
 10
-50.05398295736178
 20
-58.01654550053654
 30
0.0
  0
SPLINE
  5
57
330
1F
100
AcDbEntity
  8
0
  6
Continuous
 62
     7
370
    15
100
AcDbSpline
210
0.0
220
0.0
230
1.0
 70
     8
 71
     3
 72
     9
 73
     5
 74
     0
 42
0.00000001
 43
0.00000001
 12
1.0
 22
0.0
 32
0.0
 13
1.0
 23
0.0
 33
0.0
 40
0.0
 40
0.0
 40
0.0
 40
0.0
 40
0.0421319787536292
 40
0.9999999999999999
 40
0.9999999999999999
 40
0.9999999999999999
 40
0.9999999999999999
 10
-107.8645550573021
 20
-59.23372866589062
 30
0.0
 10
-107.863560929649
 20
-59.23650438258748
 30
0.0
 10
-107.8399653691633
 20
-59.30238585264829
 30
0.0
 10
-107.8435964284585
 20
-59.37569940327523
 30
0.0
 10
-107.8470745040407
 20
-59.44592410894484
 30
0.0
  0
SPLINE
  5
5E
330
1F
100
AcDbEntity
  8
0
  6
Continuous
 62
     7
370
    15
100
AcDbSpline
210
0.0
220
0.0
230
1.0
 70
     8
 71
     3
 72
    15
 73
    11
 74
     0
 42
0.00000001
 43
0.00000001
 12
1.0
 22
0.0
 32
0.0
 13
1.0
 23
0.0
 33
0.0
 40
0.0
 40
0.0
 40
0.0
 40
0.0
 40
0.0103831302311526
 40
0.1530308135643191
 40
0.2426763519137071
 40
0.4120121861157954
 40
0.5819260882916498
 40
0.7520339544962585
 40
0.9216351316134684
 40
1.0
 40
1.0
 40
1.0
 40
1.0
 10
102.2884434150219
 20
-19.23938118518334
 30
0.0
 10
102.4013466715073
 20
-19.3406270768314
 30
0.0
 10
104.06536097253
 20
-20.83283037429769
 30
0.0
 10
106.3741227707297
 20
-23.4852458329758
 30
0.0
 10
110.0067017290497
 20
-27.97846567995753
 30
0.0
 10
113.4378090123452
 20
-33.07611342580503
 30
0.0
 10
116.9088865508139
 20
-39.44193313344693
 30
0.0
 10
119.7947517908813
 20
-46.06801106850006
 30
0.0
 10
121.7374167148018
 20
-51.65783916181606
 30
0.0
 10
122.6819918666035
 20
-55.03246822746755
 30
0.0
 10
122.9805065576039
 20
-56.09895441530794
 30
0.0
  0
SPLINE
  5
60
330
1F
100
AcDbEntity
  8
0
  6
Continuous
 62
     7
370
    15
100
AcDbSpline
210
0.0
220
0.0
230
1.0
 70
     8
 71
     3
 72
    29
 73
    25
 74
     0
 42
0.00000001
 43
0.00000001
 12
1.0
 22
0.0
 32
0.0
 13
1.0
 23
0.0
 33
0.0
 40
0.0
 40
0.0
 40
0.0
 40
0.0
 40
0.0625
 40
0.0625
 40
0.1249999999999999
 40
0.1249999999999999
 40
0.2500000000000004
 40
0.2500000000000004
 40
0.3750000000000009
 40
0.3750000000000009
 40
0.5000000000000014
 40
0.5000000000000014
 40
0.5312500000000012
 40
0.5312500000000012
 40
0.562500000000001
 40
0.625000000000001
 40
0.625000000000001
 40
0.7500000000000007
 40
0.7500000000000007
 40
0.8125000000000006
 40
0.8125000000000006
 40
0.8750000000000002
 40
0.8750000000000002
 40
1.0
 40
1.0
 40
1.0
 40
1.0
 10
122.3130347521836
 20
-53.46430278911654
 30
0.0
 10
121.9362907658417
 20
-52.06811481502987
 30
0.0
 10
121.5307724079823
 20
-50.67834119388383
 30
0.0
 10
120.6614369026779
 20
-47.92345741874803
 30
0.0
 10
120.1980539587395
 20
-46.55948425027107
 30
0.0
 10
118.71713970534
 20
-42.51013781894248
 30
0.0
 10
117.6090082090064
 20
-39.86726012766508
 30
0.0
 10
115.1228338531457
 20
-34.70810534108281
 30
0.0
 10
113.7448438341651
 20
-32.19180346117989
 30
0.0
 10
110.6849235348952
 20
-27.30176138446307
 30
0.0
 10
109.0030688561246
 20
-24.92798572712914
 30
0.0
 10
106.6846474002389
 20
-22.06212825399485
 30
0.0
 10
106.2093433499524
 20
-21.49313430189734
 30
0.0
 10
105.2408369813375
 20
-20.37081455712342
 30
0.0
 10
103.7617437030819
 20
-18.71121449821723
 30
0.0
 10
102.2032400168678
 20
-17.12362420773053
 30
0.0
 10
98.9792428616236
 20
-14.04546251485853
 30
0.0
 10
96.68726507653105
 20
-12.12270716557288
 30
0.0
 10
93.03077346383145
 20
-9.436733682341252
 30
0.0
 10
91.7728235237176
 20
-8.572885304458117
 30
0.0
 10
89.20625870096171
 20
-6.925969203162563
 30
0.0
 10
87.89587128829481
 20
-6.141351364268168
 30
0.0
 10
83.88596375177946
 20
-3.900336214065149
 30
0.0
 10
81.10773870752868
 20
-2.556719409271445
 30
0.0
 10
78.23089402977703
 20
-1.354419972714644
 30
0.0
  0
SPLINE
  5
62
330
1F
100
AcDbEntity
  8
0
  6
Continuous
 62
     7
370
    15
100
AcDbSpline
210
0.0
220
0.0
230
1.0
 70
     8
 71
     3
 72
    33
 73
    29
 74
     0
 42
0.00000001
 43
0.00000001
 12
1.0
 22
0.0
 32
0.0
 13
1.0
 23
0.0
 33
0.0
 40
0.0
 40
0.0
 40
0.0
 40
0.0
 40
0.0312499999999999
 40
0.0312499999999999
 40
0.0624999999999998
 40
0.0624999999999998
 40
0.1249999999999997
 40
0.1874999999999995
 40
0.1874999999999995
 40
0.2187499999999994
 40
0.2187499999999994
 40
0.2499999999999993
 40
0.2499999999999993
 40
0.3749999999999997
 40
0.3749999999999997
 40
0.5
 40
0.5
 40
0.5624999999999999
 40
0.5624999999999999
 40
0.6249999999999999
 40
0.6249999999999999
 40
0.7500000000000002
 40
0.7500000000000002
 40
0.8125000000000001
 40
0.8125000000000001
 40
0.8750000000000001
 40
0.8750000000000001
 40
1.0
 40
1.0
 40
1.0
 40
1.0
 10
77.54053175031497
 20
0.3369187397364408
 30
0.0
 10
78.26284442697948
 20
0.0350476895237713
 30
0.0
 10
78.98654900228158
 20
-0.2648015189063574
 30
0.0
 10
80.41841813544362
 20
-0.8870730281727891
 30
0.0
 10
81.12821753034818
 20
-1.20712060016372
 30
0.0
 10
83.23892102576302
 20
-2.19441881648386
 30
0.0
 10
86.00334523812647
 20
-3.583223276526069
 30
0.0
 10
88.66486124565075
 20
-5.121509963717377
 30
0.0
 10
90.62113136453308
 20
-6.333134754447315
 30
0.0
 10
91.26657616087141
 20
-6.74666242101388
 30
0.0
 10
92.54395299984245
 20
-7.593346087203416
 30
0.0
 10
93.17634587327426
 20
-8.026860523368804
 30
0.0
 10
96.28930123867477
 20
-10.2336283908437
 30
0.0
 10
98.63377774117194
 20
-12.13133737178675
 30
0.0
 10
103.0369981619423
 20
-16.1858647686082
 30
0.0
 10
105.0966256842119
 20
-18.34374178183177
 30
0.0
 10
107.9733205937796
 20
-21.767784682764
 30
0.0
 10
108.8937320218488
 20
-22.93680335865899
 30
0.0
 10
110.6550066069047
 20
-25.32089520074938
 30
0.0
 10
111.4949026214336
 20
-26.53448432668761
 30
0.0
 10
113.8989082355772
 20
-30.23642235015739
 30
0.0
 10
115.3474969211168
 20
-32.78585648712131
 30
0.0
 10
117.3121318441022
 20
-36.72012528882146
 30
0.0
 10
117.9320152245781
 20
-38.04969132514425
 30
0.0
 10
119.1004034419635
 20
-40.73048465953171
 30
0.0
 10
119.6497607733576
 20
-42.08336212346223
 30
0.0
 10
121.2002366581908
 20
-46.17695978177808
 30
0.0
 10
122.1046240858798
 20
-48.95512299678873
 30
0.0
 10
122.8929322447913
 20
-51.76745522727882
 30
0.0
  0
SPLINE
  5
63
330
1F
100
AcDbEntity
  8
0
  6
Continuous
 62
     7
370
    15
100
AcDbSpline
210
0.0
220
0.0
230
1.0
 70
     8
 71
     3
 72
    12
 73
     8
 74
     0
 42
0.00000001
 43
0.00000001
 12
1.0
 22
0.0
 32
0.0
 13
1.0
 23
0.0
 33
0.0
 40
0.0
 40
0.0
 40
0.0
 40
0.0
 40
0.2499999999999937
 40
0.2499999999999937
 40
0.4999999999999873
 40
0.4999999999999873
 40
1.0
 40
1.0
 40
1.0
 40
1.0
 10
122.3130347521836
 20
-53.46430278911654
 30
0.0
 10
122.2941288643848
 20
-53.38967727290849
 30
0.0
 10
122.3072562056142
 20
-53.26306368434999
 30
0.0
 10
122.3736480342351
 20
-52.97345856514871
 30
0.0
 10
122.4242591552431
 20
-52.81653137704079
 30
0.0
 10
122.5979120676857
 20
-52.34992685155062
 30
0.0
 10
122.7429570204436
 20
-52.04180395872335
 30
0.0
 10
122.8929322447913
 20
-51.76745522727884
 30
0.0
  0
SPLINE
  5
64
330
1F
100
AcDbEntity
  8
0
  6
Continuous
 62
     7
370
    15
100
AcDbSpline
210
0.0
220
0.0
230
1.0
 70
     8
 71
     3
 72
    14
 73
    10
 74
     0
 42
0.00000001
 43
0.00000001
 12
1.0
 22
0.0
 32
0.0
 13
1.0
 23
0.0
 33
0.0
 40
0.0
 40
0.0
 40
0.0
 40
0.0
 40
0.25
 40
0.25
 40
0.5
 40
0.5
 40
0.75
 40
0.75
 40
1.0
 40
1.0
 40
1.0
 40
1.0
 10
78.23089402977703
 20
-1.354419972714644
 30
0.0
 10
78.21189256881641
 20
-1.27941720913222
 30
0.0
 10
78.16791797399891
 20
-1.152321344359254
 30
0.0
 10
78.05813308791987
 20
-0.8623867411286721
 30
0.0
 10
77.99505822454591
 20
-0.7058895208832926
 30
0.0
 10
77.86617462673668
 20
-0.3961468920122453
 30
0.0
 10
77.80019005482566
 20
-0.2425357506138544
 30
0.0
 10
77.66854664916967
 20
0.056637301712549
 30
0.0
 10
77.60396865743746
 20
0.1997485167870988
 30
0.0
 10
77.54053175031494
 20
0.3369187397364408
 30
0.0
  0
SPLINE
  5
74
330
1F
100
AcDbEntity
  8
0
  6
Continuous
 62
     7
370
    15
100
AcDbSpline
210
0.0
220
0.0
230
1.0
 70
     8
 71
     3
 72
    20
 73
    16
 74
     0
 42
0.00000001
 43
0.00000001
 12
1.0
 22
0.0
 32
0.0
 13
1.0
 23
0.0
 33
0.0
 40
0.3079560853093459
 40
0.3079560853093459
 40
0.3079560853093459
 40
0.3079560853093459
 40
0.3749999999999995
 40
0.3749999999999995
 40
0.4374999999999996
 40
0.4374999999999996
 40
0.4999999999999997
 40
0.4999999999999997
 40
0.7499999999999999
 40
0.7499999999999999
 40
0.8125
 40
0.8125
 40
0.875
 40
0.875
 40
1.0
 40
1.0
 40
1.0
 40
1.0
 10
103.3307219724806
 20
-4.851651236465075
 30
0.0
 10
104.469978764533
 20
-5.765297066226499
 30
0.0
 10
105.5827343748125
 20
-6.709607753210313
 30
0.0
 10
107.6810360561032
 20
-8.594157823167047
 30
0.0
 10
108.6714528905082
 20
-9.531714465864573
 30
0.0
 10
110.5991685046162
 20
-11.45542730634124
 30
0.0
 10
111.5315233003098
 20
-12.43648899359201
 30
0.0
 10
116.0414329129002
 20
-17.43437891873815
 30
0.0
 10
119.1647596938857
 20
-21.72811943699868
 30
0.0
 10
122.538219991321
 20
-27.41882606762985
 30
0.0
 10
123.1862978138269
 20
-28.57319230386719
 30
0.0
 10
124.4308166536967
 20
-30.91340426314636
 30
0.0
 10
125.0278909698477
 20
-32.10060739548868
 30
0.0
 10
126.7391620290562
 20
-35.69792203535921
 30
0.0
 10
127.771523369059
 20
-38.13873125919922
 30
0.0
 10
128.705772628531
 20
-40.61806638289305
 30
0.0
  0
SPLINE
  5
76
330
1F
100
AcDbEntity
  8
0
  6
Continuous
 62
     7
370
    15
100
AcDbSpline
210
0.0
220
0.0
230
1.0
 70
     8
 71
     3
 72
     8
 73
     4
 74
     0
 42
0.00000001
 43
0.00000001
 12
1.0
 22
0.0
 32
0.0
 13
1.0
 23
0.0
 33
0.0
 40
0.0
 40
0.0
 40
0.0
 40
0.0
 40
0.0400226850954134
 40
0.0400226850954134
 40
0.0400226850954134
 40
0.0400226850954134
 10
166.5598675210911
 20
-24.79971264945733
 30
0.0
 10
165.8102434703696
 20
-23.72682551423742
 30
0.0
 10
165.0513259310987
 20
-22.66020520564398
 30
0.0
 10
164.2830455510664
 20
-21.59989848956977
 30
0.0
  0
SPLINE
  5
7A
330
1F
100
AcDbEntity
  8
0
  6
Continuous
 62
     7
370
    15
100
AcDbSpline
210
0.0
220
0.0
230
1.0
 70
     8
 71
     3
 72
    17
 73
    13
 74
     0
 42
0.00000001
 43
0.00000001
 12
1.0
 22
0.0
 32
0.0
 13
1.0
 23
0.0
 33
0.0
 40
0.2946604386049639
 40
0.2946604386049639
 40
0.2946604386049639
 40
0.2946604386049639
 40
0.3125000000000009
 40
0.3125000000000009
 40
0.3750000000000012
 40
0.5000000000000012
 40
0.5000000000000012
 40
0.5625000000000012
 40
0.5625000000000012
 40
0.625000000000001
 40
0.625000000000001
 40
0.7403471495400105
 40
0.7403471495400105
 40
0.7403471495400105
 40
0.7403471495400105
 10
148.4639753442369
 20
-2.140560819072442
 30
0.0
 10
148.0673056345276
 20
-1.704749902429241
 30
0.0
 10
147.668802322152
 20
-1.270376087810311
 30
0.0
 10
145.866190615404
 20
0.6789788615393713
 30
0.0
 10
141.5938390548499
 20
5.173002464986309
 30
0.0
 10
137.1250533103177
 20
9.500267112905552
 30
0.0
 10
132.5247821546837
 20
13.71590979473725
 30
0.0
 10
130.9694445889053
 20
15.10252069034238
 30
0.0
 10
127.8148583033471
 20
17.8384649668706
 30
0.0
 10
126.2158302604859
 20
19.18754801854013
 30
0.0
 10
121.6149192408106
 20
22.96401096622774
 30
0.0
 10
118.5667640408018
 20
25.34153574803463
 30
0.0
 10
115.4556080778647
 20
27.64852155480262
 30
0.0
  0
SPLINE
  5
82
330
1F
100
AcDbEntity
  8
0
  6
Continuous
 62
     7
370
    15
100
AcDbSpline
210
0.0
220
0.0
230
1.0
 70
     8
 71
     3
 72
    18
 73
    14
 74
     0
 42
0.00000001
 43
0.00000001
 12
1.0
 22
0.0
 32
0.0
 13
1.0
 23
0.0
 33
0.0
 40
0.0
 40
0.0
 40
0.0
 40
0.0
 40
0.125
 40
0.125
 40
0.2500000000000001
 40
0.2500000000000001
 40
0.5000000000000001
 40
0.5000000000000001
 40
0.7499999999999999
 40
0.7499999999999999
 40
0.875
 40
0.875
 40
1.0
 40
1.0
 40
1.0
 40
1.0
 10
179.484596810204
 20
-28.1191030212516
 30
0.0
 10
177.5339091090953
 20
-25.07573896732638
 30
0.0
 10
175.5130855954392
 20
-22.07389139824036
 30
0.0
 10
171.3273899731924
 20
-16.15546498499625
 30
0.0
 10
169.1616715471142
 20
-13.23795625645081
 30
0.0
 10
162.458993444264
 20
-4.637030628790437
 30
0.0
 10
157.7119363221021
 20
0.9016224906892439
 30
0.0
 10
147.6440335480833
 20
11.573376801162
 30
0.0
 10
142.3477130928598
 20
16.68047077974331
 30
0.0
 10
134.0085352873818
 20
23.99693984446548
 30
0.0
 10
131.1613985797035
 20
26.37960134321218
 30
0.0
 10
125.3497972106534
 20
31.01892194005737
 30
0.0
 10
122.3841476255708
 20
33.27674656948309
 30
0.0
 10
119.3592739356245
 20
35.47338106657786
 30
0.0
  0
LWPOLYLINE
  5
95
330
1F
100
AcDbEntity
  8
0
  6
Continuous
 62
     7
370
    15
100
AcDbPolyline
 90
       19
 70
   128
 43
0.0
 10
20.610718938
 20
16.3732132453
 10
20.2428652163
 20
16.8822802879
 10
19.6974220619
 20
17.2371951914
 10
19.0401779691
 20
17.3951499805
 10
18.3504062754
 20
17.3370929764
 10
17.7113036271
 20
17.0700267108
 10
17.1999552356
 20
16.6261633166
 10
16.8780372636
 20
16.0590392699
 10
16.7843777697
 20
15.4370581008
 10
16.930273471
 20
14.8352399175
 10
17.2981271927
 20
14.3261728749
 10
17.8435703471
 20
13.9712579714
 10
18.5008144399
 20
13.8133031823
 10
19.1905861336
 20
13.8713601863
 10
19.8296887819
 20
14.138426452
 10
20.3410371734
 20
14.5822898462
 10
20.6629551454
 20
15.1494138928
 10
20.7566146393
 20
15.771395062
 10
20.610718938
 20
16.3732132453
  0
SPLINE
  5
96
330
1F
100
AcDbEntity
  8
0
  6
Continuous
 62
     7
370
    15
100
AcDbSpline
210
0.0
220
0.0
230
1.0
 70
     8
 71
     3
 72
     9
 73
     5
 74
     0
 42
0.00000001
 43
0.00000001
 12
1.0
 22
0.0
 32
0.0
 13
1.0
 23
0.0
 33
0.0
 40
0.0
 40
0.0
 40
0.0
 40
0.0
 40
0.5253537189148904
 40
1.0
 40
1.0
 40
1.0
 40
1.0
 10
122.9805065576039
 20
-56.09895441530794
 30
0.0
 10
122.9941859688078
 20
-56.12922767244576
 30
0.0
 10
123.020224446716
 20
-56.18685219483488
 30
0.0
 10
123.0779995383134
 20
-56.16809054332237
 30
0.0
 10
123.1054222706795
 20
-56.15918539520494
 30
0.0
  0
SPLINE
  5
97
330
1F
100
AcDbEntity
  8
0
  6
Continuous
 62
     7
370
    15
100
AcDbSpline
210
0.0
220
0.0
230
1.0
 70
     8
 71
     3
 72
     9
 73
     5
 74
     0
 42
0.00000001
 43
0.00000001
 12
1.0
 22
0.0
 32
0.0
 13
1.0
 23
0.0
 33
0.0
 40
0.0
 40
0.0
 40
0.0
 40
0.0
 40
0.9642255742475286
 40
1.0
 40
1.0
 40
1.0
 40
1.0
 10
78.89836583519724
 20
-3.989071598906054
 30
0.0
 10
78.91215549893435
 20
-4.036546740857867
 30
0.0
 10
78.92645678289256
 20
-4.085783292158491
 30
0.0
 10
78.97711081271378
 20
-4.093380193212787
 30
0.0
 10
78.97892293154266
 20
-4.093651967985501
 30
0.0
  0
SPLINE
  5
98
330
1F
100
AcDbEntity
  8
0
  6
Continuous
 62
     7
370
    15
100
AcDbSpline
210
0.0
220
0.0
230
1.0
 70
     8
 71
     3
 72
    12
 73
     8
 74
     0
 42
0.00000001
 43
0.00000001
 12
1.0
 22
0.0
 32
0.0
 13
1.0
 23
0.0
 33
0.0
 40
0.0
 40
0.0
 40
0.0
 40
0.0
 40
0.2499999999999928
 40
0.2499999999999928
 40
0.4999999999999856
 40
0.4999999999999856
 40
1.0
 40
1.0
 40
1.0
 40
1.0
 10
181.0108587780794
 20
-28.9358350907099
 30
0.0
 10
180.9921329637323
 20
-28.86192036229608
 30
0.0
 10
180.9126111117205
 20
-28.77526066767459
 30
0.0
 10
180.6900817288549
 20
-28.60770042709338
 30
0.0
 10
180.5525607879237
 20
-28.52898488526576
 30
0.0
 10
180.1168959048951
 20
-28.31550120630674
 30
0.0
 10
179.794717613618
 20
-28.2015639234281
 30
0.0
 10
179.4845968102041
 20
-28.11910302125157
 30
0.0
  0
SPLINE
  5
9C
330
1F
100
AcDbEntity
  8
0
  6
Continuous
 62
     7
370
    15
100
AcDbSpline
210
0.0
220
0.0
230
1.0
 70
     8
 71
     3
 72
    12
 73
     8
 74
     0
 42
0.00000001
 43
0.00000001
 12
1.0
 22
0.0
 32
0.0
 13
1.0
 23
0.0
 33
0.0
 40
0.0
 40
0.0
 40
0.0
 40
0.0
 40
0.1534582865690875
 40
0.4167716279243256
 40
0.680902686582962
 40
0.8403683835163017
 40
1.0
 40
1.0
 40
1.0
 40
1.0
 10
147.8645886147701
 20
12.08805570749728
 30
0.0
 10
149.8149629582744
 20
10.17576457366608
 30
0.0
 10
155.1119117798561
 20
4.982244518603574
 30
0.0
 10
163.0311205406781
 20
-4.091603316767396
 30
0.0
 10
170.5128295655829
 20
-13.5885901704652
 30
0.0
 10
176.453060870067
 20
-21.91610045980896
 30
0.0
 10
179.4910662562176
 20
-26.59511257233262
 30
0.0
 10
181.0108587780794
 20
-28.93583509070991
 30
0.0
  0
SPLINE
  5
9D
330
1F
100
AcDbEntity
  8
0
  6
Continuous
 62
     7
370
    15
100
AcDbSpline
210
0.0
220
0.0
230
1.0
 70
     8
 71
     3
 72
     9
 73
     5
 74
     0
 42
0.00000001
 43
0.00000001
 12
1.0
 22
0.0
 32
0.0
 13
1.0
 23
0.0
 33
0.0
 40
0.0
 40
0.0
 40
0.0
 40
0.0
 40
0.5314561865849637
 40
1.0
 40
1.0
 40
1.0
 40
1.0
 10
181.6783305834996
 20
-31.5704867169013
 30
0.0
 10
181.6795666138165
 20
-31.6063339859687
 30
0.0
 10
181.6818923564611
 20
-31.67378501951063
 30
0.0
 10
181.608803890974
 20
-31.70912353382893
 30
0.0
 10
181.5745587426381
 20
-31.72568117608804
 30
0.0
  0
LWPOLYLINE
  5
AE
330
1F
100
AcDbEntity
  8
0
  6
Continuous
 62
     7
370
    15
100
AcDbPolyline
 90
       19
 70
   128
 43
0.0
 10
87.6823043724
 20
50.8389210343
 10
87.5364086712
 20
51.4407392176
 10
87.6300681651
 20
52.0627203868
 10
87.951986137
 20
52.6298444334
 10
88.4633345285
 20
53.0737078276
 10
89.1024371769
 20
53.3407740933
 10
89.7922088705
 20
53.3988310973
 10
90.4494529633
 20
53.2408763082
 10
90.9948961177
 20
52.8859614047
 10
91.3627498395
 20
52.3768943621
 10
91.5086455407
 20
51.7750761788
 10
91.4149860468
 20
51.1530950097
 10
91.0930680749
 20
50.585970963
 10
90.5817196834
 20
50.1421075688
 10
89.942617035
 20
49.8750413032
 10
89.2528453414
 20
49.8169842991
 10
88.5956012486
 20
49.9749390882
 10
88.0501580942
 20
50.3298539917
 10
87.6823043724
 20
50.8389210343
  0
LWPOLYLINE
  5
AF
330
1F
100
AcDbEntity
  8
0
  6
Continuous
 62
     7
370
    15
100
AcDbPolyline
 90
       19
 70
   128
 43
0.0
 10
151.2044589831
 20
-22.4160451224
 10
151.0585632818
 20
-21.8142269392
 10
151.1522227758
 20
-21.19224577
 10
151.4741407477
 20
-20.6251217233
 10
151.9854891392
 20
-20.1812583292
 10
152.6245917875
 20
-19.9141920635
 10
153.3143634812
 20
-19.8561350594
 10
153.971607574
 20
-20.0140898485
 10
154.5170507284
 20
-20.369004752
 10
154.8849044501
 20
-20.8780717946
 10
155.0308001514
 20
-21.4798899779
 10
154.9371406575
 20
-22.1018711471
 10
154.6152226856
 20
-22.6689951937
 10
154.1038742941
 20
-23.1128585879
 10
153.4647716457
 20
-23.3799248536
 10
152.7749999521
 20
-23.4379818576
 10
152.1177558593
 20
-23.2800270685
 10
151.5723127049
 20
-22.925112165
 10
151.2044589831
 20
-22.4160451224
  0
SPLINE
  5
B7
330
1F
100
AcDbEntity
  8
0
  6
Continuous
 62
     7
370
    15
100
AcDbSpline
210
0.0
220
0.0
230
1.0
 70
     8
 71
     3
 72
    10
 73
     6
 74
     0
 42
0.00000001
 43
0.00000001
 12
1.0
 22
0.0
 32
0.0
 13
1.0
 23
0.0
 33
0.0
 40
0.0
 40
0.0
 40
0.0
 40
0.0
 40
0.0309363063429025
 40
0.6465228781414746
 40
1.0
 40
1.0
 40
1.0
 40
1.0
 10
141.1990533263402
 20
2.82386698114042
 30
0.0
 10
141.0554499353908
 20
2.973482024566439
 30
0.0
 10
138.0543522413608
 20
6.100214331160703
 30
0.0
 10
133.0458538357434
 20
10.64036856282773
 30
0.0
 10
128.0076887628151
 20
14.85122430785212
 30
0.0
 10
126.1699601376655
 20
16.38718234554879
 30
0.0
  0
LWPOLYLINE
  5
C6
330
1F
100
AcDbEntity
  8
0
  6
Continuous
 62
     7
370
    15
100
AcDbPolyline
 90
       19
 70
   128
 43
0.0
 10
60.1529012012
 20
29.2474031787
 10
60.2987969025
 20
28.6455849954
 10
60.2051374085
 20
28.0236038262
 10
59.8832194366
 20
27.4564797796
 10
59.3718710451
 20
27.0126163854
 10
58.7327683967
 20
26.7455501197
 10
58.0429967031
 20
26.6874931157
 10
57.3857526103
 20
26.8454479048
 10
56.8403094559
 20
27.2003628083
 10
56.4724557342
 20
27.7094298509
 10
56.3265600329
 20
28.3112480342
 10
56.4202195268
 20
28.9332292033
 10
56.7421374987
 20
29.50035325
 10
57.2534858902
 20
29.9442166442
 10
57.8925885386
 20
30.2112829098
 10
58.5823602322
 20
30.2693399139
 10
59.239604325
 20
30.1113851248
 10
59.7850474794
 20
29.7564702213
 10
60.1529012012
 20
29.2474031787
  0
LWPOLYLINE
  5
D0
330
1F
100
AcDbEntity
  8
0
  6
Continuous
 62
     7
370
    15
100
AcDbPolyline
 90
        9
 70
   128
 43
0.0
 10
1.9090856715
 20
1.7666892131
 10
1.9802095551
 20
1.6167126784
 10
2.0443250932
 20
1.4893743552
 10
2.0989683617
 20
1.3895677839
 10
2.1420394504
 20
1.321128475
 10
2.1718831614
 20
1.2866865129
 10
2.1873526178
 20
1.2875654827
 10
2.1878533369
 20
1.3237316062
 10
2.1733660765
 20
1.3937950396
  0
SPLINE
  5
D9
330
1F
100
AcDbEntity
  8
0
  6
Continuous
 62
     7
370
    15
100
AcDbSpline
210
0.0
220
0.0
230
1.0
 70
     8
 71
     3
 72
    12
 73
     8
 74
     0
 42
0.00000001
 43
0.00000001
 12
1.0
 22
0.0
 32
0.0
 13
1.0
 23
0.0
 33
0.0
 40
0.0
 40
0.0
 40
0.0
 40
0.0
 40
0.4999999999999999
 40
0.4999999999999999
 40
0.7499999999999999
 40
0.7499999999999999
 40
1.0
 40
1.0
 40
1.0
 40
1.0
 10
42.47029256772043
 20
19.04498944409078
 30
0.0
 10
42.48750041195063
 20
18.85000328322743
 30
0.0
 10
42.43964274761353
 20
18.62862018013747
 30
0.0
 10
42.29097660652919
 20
18.33950470676223
 30
0.0
 10
42.22887514397035
 20
18.24993064558684
 30
0.0
 10
42.0768547001358
 20
18.09499749578953
 30
0.0
 10
41.9872882247011
 20
18.03111540989041
 30
0.0
 10
41.88655927911061
 20
17.98902310529116
 30
0.0
  0
LWPOLYLINE
  5
DE
330
1F
100
AcDbEntity
  8
0
  6
Continuous
 62
     7
370
    15
100
AcDbPolyline
 90
       10
 70
   128
 43
0.0
 10
19.6764082774
 20
63.4601757729
 10
19.7977984873
 20
63.0618682785
 10
19.9951351308
 20
62.5157235084
 10
20.2446164966
 20
61.8876145823
 10
20.5161514499
 20
61.2533007065
 10
20.7769888679
 20
60.689289496
 10
20.9956679084
 20
60.2636090266
 10
21.1458126519
 20
60.0276026453
 10
21.2093134263
 20
60.0097362048
 10
21.1785111011
 20
60.2121646615
  0
LWPOLYLINE
  5
E0
330
1F
100
AcDbEntity
  8
0
  6
Continuous
 62
     7
370
    15
100
AcDbPolyline
 90
       11
 70
   128
 43
0.0
 10
25.2860957538
 20
51.3302956021
 10
25.4150365725
 20
50.8960343509
 10
25.6254780744
 20
50.3002311938
 10
25.896365018
 20
49.6024978476
 10
26.2005944322
 20
48.8726444202
 10
26.5077273417
 20
48.1836947203
 10
26.7870342682
 20
47.6045800284
 10
27.0105697987
 20
47.193242335
 10
27.1559685989
 20
46.9908370887
 10
27.2086831258
 20
47.0176154815
 10
27.1634391483
 20
47.2708982629
  0
SPLINE
  5
10A
330
1F
100
AcDbEntity
  8
0
  6
Continuous
 62
     7
370
    15
100
AcDbSpline
210
0.0
220
0.0
230
1.0
 70
     8
 71
     3
 72
    19
 73
    15
 74
     0
 42
0.00000001
 43
0.00000001
 12
1.0
 22
0.0
 32
0.0
 13
1.0
 23
0.0
 33
0.0
 40
0.0
 40
0.0
 40
0.0
 40
0.0
 40
0.0494103253291715
 40
0.1686276501818413
 40
0.28781326085151
 40
0.3698736189432021
 40
0.4520184220136164
 40
0.5340507341982987
 40
0.6010018180378964
 40
0.6679508812630952
 40
0.7360097946842747
 40
0.8040688392500941
 40
0.9154454260261901
 40
1.0
 40
1.0
 40
1.0
 40
1.0
 10
-40.17475658057786
 20
-121.3642055066816
 30
0.0
 10
-40.79945445962267
 20
-120.4340088948989
 30
0.0
 10
-42.93142454310464
 20
-117.2594321681309
 30
0.0
 10
-46.2095625200612
 20
-111.6365185128812
 30
0.0
 10
-49.29969635946022
 20
-105.1131263152438
 30
0.0
 10
-51.51453429360951
 20
-99.14790059659221
 30
0.0
 10
-53.04609090774525
 20
-93.84107419652288
 30
0.0
 10
-54.08326910660433
 20
-88.75995157529148
 30
0.0
 10
-54.6848820440522
 20
-83.94737930832738
 30
0.0
 10
-54.9321067888052
 20
-79.40776994244264
 30
0.0
 10
-54.85401745151147
 20
-74.82100122656668
 30
0.0
 10
-54.34196277228838
 20
-69.23217888817389
 30
0.0
 10
-53.30897427966316
 20
-63.28168270396861
 30
0.0
 10
-51.92031976586889
 20
-58.97286715251567
 30
0.0
 10
-51.32104249745849
 20
-57.11338721124245
 30
0.0
  0
SPLINE
  5
10C
330
1F
100
AcDbEntity
  8
0
  6
Continuous
 62
     7
370
    15
100
AcDbSpline
210
0.0
220
0.0
230
1.0
 70
     8
 71
     3
 72
    15
 73
    11
 74
     0
 42
0.00000001
 43
0.00000001
 12
1.0
 22
0.0
 32
0.0
 13
1.0
 23
0.0
 33
0.0
 40
0.0
 40
0.0
 40
0.0
 40
0.0
 40
0.1507721325019491
 40
0.3532530680855439
 40
0.4736855122142339
 40
0.5941177014528853
 40
0.7165672434938035
 40
0.839020638409875
 40
0.9407064971352527
 40
1.0
 40
1.0
 40
1.0
 40
1.0
 10
-50.64611375697364
 20
-59.71950723566226
 30
0.0
 10
-51.24066482393548
 20
-61.56241069550815
 30
0.0
 10
-52.63367416228306
 20
-65.88025969434489
 30
0.0
 10
-53.66750456758196
 20
-71.81516522812167
 30
0.0
 10
-54.18093788794982
 20
-77.38006264053662
 30
0.0
 10
-54.26512155151914
 20
-81.94137509707252
 30
0.0
 10
-54.03079468368608
 20
-86.508473136846
 30
0.0
 10
-53.47440503343885
 20
-90.7972544274685
 30
0.0
 10
-52.87349441353292
 20
-94.28383539966892
 30
0.0
 10
-52.31802164135718
 20
-96.21182774768289
 30
0.0
 10
-52.11342444279111
 20
-96.92196486514295
 30
0.0
  0
SPLINE
  5
10E
330
1F
100
AcDbEntity
  8
0
  6
Continuous
 62
     7
370
    15
100
AcDbSpline
210
0.0
220
0.0
230
1.0
 70
     8
 71
     3
 72
    12
 73
     8
 74
     0
 42
0.00000001
 43
0.00000001
 12
1.0
 22
0.0
 32
0.0
 13
1.0
 23
0.0
 33
0.0
 40
0.0
 40
0.0
 40
0.0
 40
0.0
 40
0.2499999999999937
 40
0.2499999999999937
 40
0.4999999999999873
 40
0.4999999999999873
 40
1.0
 40
1.0
 40
1.0
 40
1.0
 10
-40.17475658057786
 20
-121.3642055066816
 30
0.0
 10
-40.19366246837669
 20
-121.2895799904735
 30
0.0
 10
-40.27596184722709
 20
-121.2028430286876
 30
0.0
 10
-40.50467182024987
 20
-121.0365541504114
 30
0.0
 10
-40.64489383827401
 20
-120.9593717324754
 30
0.0
 10
-41.0877335316704
 20
-120.7503852570506
 30
0.0
 10
-41.41414159821149
 20
-120.6392717141796
 30
0.0
 10
-41.72819608680415
 20
-120.5588303040685
 30
0.0
  0
SPLINE
  5
10F
330
1F
100
AcDbEntity
  8
0
  6
Continuous
 62
     7
370
    15
100
AcDbSpline
210
0.0
220
0.0
230
1.0
 70
     8
 71
     3
 72
    33
 73
    29
 74
     0
 42
0.00000001
 43
0.00000001
 12
1.0
 22
0.0
 32
0.0
 13
1.0
 23
0.0
 33
0.0
 40
0.0
 40
0.0
 40
0.0
 40
0.0
 40
0.0312499999999999
 40
0.0312499999999999
 40
0.0624999999999998
 40
0.0624999999999998
 40
0.1249999999999997
 40
0.1874999999999995
 40
0.1874999999999995
 40
0.2187499999999994
 40
0.2187499999999994
 40
0.2499999999999993
 40
0.2499999999999993
 40
0.3749999999999997
 40
0.3749999999999997
 40
0.5
 40
0.5
 40
0.5624999999999999
 40
0.5624999999999999
 40
0.6249999999999999
 40
0.6249999999999999
 40
0.7500000000000002
 40
0.7500000000000002
 40
0.8125000000000001
 40
0.8125000000000001
 40
0.8750000000000001
 40
0.8750000000000001
 40
1.0
 40
1.0
 40
1.0
 40
1.0
 10
-51.4540621200731
 20
-53.5669487634782
 30
0.0
 10
-51.70841723241146
 20
-54.27694677090248
 30
0.0
 10
-51.96528059640083
 20
-54.98655271945287
 30
0.0
 10
-52.45100365130025
 20
-56.41014180435604
 30
0.0
 10
-52.68280937765112
 20
-57.12366445288776
 30
0.0
 10
-53.34453805092222
 20
-59.26949816901851
 30
0.0
 10
-54.13701664606738
 20
-62.1446503270922
 30
0.0
 10
-54.74405093677568
 20
-65.04878884510173
 30
0.0
 10
-55.12748508399152
 20
-67.23812211936071
 30
0.0
 10
-55.24332149781681
 20
-67.96977165641883
 30
0.0
 10
-55.45064385491098
 20
-69.43687689490497
 30
0.0
 10
-55.54216352253886
 20
-70.17289769607666
 30
0.0
 10
-55.93624541516282
 20
-73.84517559783515
 30
0.0
 10
-56.05033136471202
 20
-76.77026115858003
 30
0.0
 10
-55.88447743792353
 20
-82.5954863435868
 30
0.0
 10
-55.60431439663306
 20
-85.49696054744729
 30
0.0
 10
-54.8951075908308
 20
-89.82674676718536
 30
0.0
 10
-54.61123594545767
 20
-91.26176074627459
 30
0.0
 10
-53.95401246442146
 20
-94.10721009678625
 30
0.0
 10
-53.58115709126101
 20
-95.5159647416472
 30
0.0
 10
-52.33696381517533
 20
-99.70256160796806
 30
0.0
 10
-51.34017415580387
 20
-102.4407921441758
 30
0.0
 10
-49.618839356228
 20
-106.4767304594756
 30
0.0
 10
-49.00733804257332
 20
-107.8097991683196
 30
0.0
 10
-47.71928679143168
 20
-110.4405880790867
 30
0.0
 10
-47.04203410910954
 20
-111.7400210238025
 30
0.0
 10
-44.91718962546575
 20
-115.5936032836482
 30
0.0
 10
-43.3751755914452
 20
-118.1053170369182
 30
0.0
 10
-41.72819608680419
 20
-120.5588303040685
 30
0.0
  0
SPLINE
  5
110
330
1F
100
AcDbEntity
  8
0
  6
Continuous
 62
     7
370
    15
100
AcDbSpline
210
0.0
220
0.0
230
1.0
 70
     8
 71
     3
 72
    14
 73
    10
 74
     0
 42
0.00000001
 43
0.00000001
 12
1.0
 22
0.0
 32
0.0
 13
1.0
 23
0.0
 33
0.0
 40
0.0
 40
0.0
 40
0.0
 40
0.0
 40
0.25
 40
0.25
 40
0.5
 40
0.5
 40
0.75
 40
0.75
 40
1.0
 40
1.0
 40
1.0
 40
1.0
 10
-50.76369984061103
 20
-55.25828747592929
 30
0.0
 10
-50.78270130157163
 20
-55.18328471234686
 30
0.0
 10
-50.82667589638916
 20
-55.05618884757389
 30
0.0
 10
-50.9364607824682
 20
-54.76625424434331
 30
0.0
 10
-50.99953564584214
 20
-54.60975702409792
 30
0.0
 10
-51.12841924365141
 20
-54.30001439522689
 30
0.0
 10
-51.19440381556239
 20
-54.1464032538285
 30
0.0
 10
-51.32604722121841
 20
-53.84723020150209
 30
0.0
 10
-51.3906252129506
 20
-53.70411898642754
 30
0.0
 10
-51.4540621200731
 20
-53.5669487634782
 30
0.0
  0
SPLINE
  5
111
330
1F
100
AcDbEntity
  8
0
  6
Continuous
 62
     7
370
    15
100
AcDbSpline
210
0.0
220
0.0
230
1.0
 70
     8
 71
     3
 72
    18
 73
    14
 74
     0
 42
0.00000001
 43
0.00000001
 12
1.0
 22
0.0
 32
0.0
 13
1.0
 23
0.0
 33
0.0
 40
0.0
 40
0.0
 40
0.0
 40
0.0
 40
0.1249999999999998
 40
0.1249999999999998
 40
0.2499999999999997
 40
0.2499999999999997
 40
0.4999999999999997
 40
0.4999999999999997
 40
0.7499999999999998
 40
0.7499999999999998
 40
0.875
 40
0.875
 40
1.0
 40
1.0
 40
1.0
 40
1.0
 10
-107.8416814406819
 20
-59.51246392695129
 30
0.0
 10
-108.1893388520858
 20
-63.1716851207654
 30
0.0
 10
-108.4471383255243
 20
-66.83079270218741
 30
0.0
 10
-108.7811111047106
 20
-74.14877822495903
 30
0.0
 10
-108.8571701337914
 20
-77.80916842007464
 30
0.0
 10
-108.8107596749239
 20
-88.76154624835972
 30
0.0
 10
-108.4142705564289
 20
-96.03437234941015
 30
0.0
 10
-106.8930918314969
 20
-110.5153975754699
 30
0.0
 10
-105.7721648890767
 20
-117.6894663524948
 30
0.0
 10
-103.5677453323755
 20
-128.3541264475858
 30
0.0
 10
-102.745283966305
 20
-131.8944206813892
 30
0.0
 10
-100.9334513328262
 20
-138.9267139077236
 30
0.0
 10
-99.94377884126688
 20
-142.4205511782229
 30
0.0
 10
-98.87258060647363
 20
-145.8926732050882
 30
0.0
  0
SPLINE
  5
113
330
1F
100
AcDbEntity
  8
0
  6
Continuous
 62
     7
370
    15
100
AcDbSpline
210
0.0
220
0.0
230
1.0
 70
     8
 71
     3
 72
    18
 73
    14
 74
     0
 42
0.00000001
 43
0.00000001
 12
1.0
 22
0.0
 32
0.0
 13
1.0
 23
0.0
 33
0.0
 40
0.0
 40
0.0
 40
0.0
 40
0.0
 40
0.125
 40
0.125
 40
0.2500000000000001
 40
0.2500000000000001
 40
0.5000000000000001
 40
0.5000000000000001
 40
0.7499999999999999
 40
0.7499999999999999
 40
0.875
 40
0.875
 40
1.0
 40
1.0
 40
1.0
 40
1.0
 10
-98.31986065221696
 20
-144.2071825100957
 30
0.0
 10
-99.36005105194079
 20
-140.7833426205304
 30
0.0
 10
-100.3206424891395
 20
-137.3384485046298
 30
0.0
 10
-102.0783408569277
 20
-130.4054180031399
 30
0.0
 10
-102.8755963911437
 20
-126.9160601746228
 30
0.0
 10
-105.0109002005744
 20
-116.4065341059434
 30
0.0
 10
-106.094692282689
 20
-109.3370869630625
 30
0.0
 10
-107.5599864040649
 20
-95.07050078343399
 30
0.0
 10
-107.9379104556623
 20
-87.9081223149016
 30
0.0
 10
-107.9711659798214
 20
-77.12079977709452
 30
0.0
 10
-107.8931426357536
 20
-73.51578131652467
 30
0.0
 10
-107.5601027282458
 20
-66.30875676179765
 30
0.0
 10
-107.3051884997533
 20
-62.70513274742225
 30
0.0
 10
-106.9628027931271
 20
-59.10139816251933
 30
0.0
  0
SPLINE
  5
114
330
1F
100
AcDbEntity
  8
0
  6
Continuous
 62
     7
370
    15
100
AcDbSpline
210
0.0
220
0.0
230
1.0
 70
     8
 71
     3
 72
    12
 73
     8
 74
     0
 42
0.00000001
 43
0.00000001
 12
1.0
 22
0.0
 32
0.0
 13
1.0
 23
0.0
 33
0.0
 40
0.0
 40
0.0
 40
0.0
 40
0.0
 40
0.2499999999999928
 40
0.2499999999999928
 40
0.4999999999999856
 40
0.4999999999999856
 40
1.0
 40
1.0
 40
1.0
 40
1.0
 10
-98.87258060647363
 20
-145.8926732050882
 30
0.0
 10
-98.89130642082081
 20
-145.8187584766744
 30
0.0
 10
-98.88013993222977
 20
-145.694202214846
 30
0.0
 10
-98.81896188812672
 20
-145.4080871798804
 30
0.0
 10
-98.77123401608954
 20
-145.2519604290264
 30
0.0
 10
-98.6056586807649
 20
-144.7872323211708
 30
0.0
 10
-98.46561097544831
 20
-144.4801414484451
 30
0.0
 10
-98.31986065221699
 20
-144.2071825100957
 30
0.0
  0
SPLINE
  5
116
330
1F
100
AcDbEntity
  8
0
  6
Continuous
 62
     7
370
    15
100
AcDbSpline
210
0.0
220
0.0
230
1.0
 70
     8
 71
     3
 72
     8
 73
     4
 74
     0
 42
0.00000001
 43
0.00000001
 12
1.0
 22
0.0
 32
0.0
 13
1.0
 23
0.0
 33
0.0
 40
0.0
 40
0.0
 40
0.0
 40
0.0
 40
1.0
 40
1.0
 40
1.0
 40
1.0
 10
-98.20510880105343
 20
-148.5273248312796
 30
0.0
 10
-98.94658159855483
 20
-146.1239563893749
 30
0.0
 10
-99.6489911136772
 20
-143.7101830292154
 30
0.0
 10
-100.3116027538714
 20
-141.2858090843095
 30
0.0
  0
SPLINE
  5
117
330
1F
100
AcDbEntity
  8
0
  6
Continuous
 62
     7
370
    15
100
AcDbSpline
210
0.0
220
0.0
230
1.0
 70
     8
 71
     3
 72
     8
 73
     4
 74
     0
 42
0.00000001
 43
0.00000001
 12
1.0
 22
0.0
 32
0.0
 13
1.0
 23
0.0
 33
0.0
 40
0.0
 40
0.0
 40
0.0
 40
0.0
 40
1.0
 40
1.0
 40
1.0
 40
1.0
 10
-100.3116027538714
 20
-141.2858090843095
 30
0.0
 10
-100.3268437095868
 20
-141.2300452345535
 30
0.0
 10
-100.3416020767363
 20
-141.1760624792803
 30
0.0
 10
-100.3558943177493
 20
-141.1238010998546
 30
0.0
  0
SPLINE
  5
118
330
1F
100
AcDbEntity
  8
0
  6
Continuous
 62
     7
370
    15
100
AcDbSpline
210
0.0
220
0.0
230
1.0
 70
     8
 71
     3
 72
     8
 73
     4
 74
     0
 42
0.00000001
 43
0.00000001
 12
1.0
 22
0.0
 32
0.0
 13
1.0
 23
0.0
 33
0.0
 40
0.0
 40
0.0
 40
0.0
 40
0.0
 40
1.0
 40
1.0
 40
1.0
 40
1.0
 10
-100.3558943177492
 20
-141.1238010998552
 30
0.0
 10
-100.4995778884006
 20
-140.5963460650729
 30
0.0
 10
-100.6410280126391
 20
-140.0698540209814
 30
0.0
 10
-100.7803002294147
 20
-139.5440701134539
 30
0.0
  0
SPLINE
  5
133
330
1F
100
AcDbEntity
  8
0
  6
Continuous
 62
     7
370
    15
100
AcDbSpline
210
0.0
220
0.0
230
1.0
 70
     8
 71
     3
 72
    17
 73
    13
 74
     0
 42
0.00000001
 43
0.00000001
 12
1.0
 22
0.0
 32
0.0
 13
1.0
 23
0.0
 33
0.0
 40
0.2946604386049639
 40
0.2946604386049639
 40
0.2946604386049639
 40
0.2946604386049639
 40
0.3125000000000009
 40
0.3125000000000009
 40
0.3750000000000012
 40
0.5000000000000012
 40
0.5000000000000012
 40
0.5625000000000012
 40
0.5625000000000012
 40
0.625000000000001
 40
0.625000000000001
 40
0.7403471495400105
 40
0.7403471495400105
 40
0.7403471495400105
 40
0.7403471495400105
 10
-97.48414759760155
 20
-104.9166123878863
 30
0.0
 10
-97.55377756926353
 20
-104.3441391028519
 30
0.0
 10
-97.62105391246806
 20
-103.7713531724692
 30
0.0
 10
-97.9133488720833
 20
-101.1908716667064
 30
0.0
 10
-98.50835175872835
 20
-95.16016881388961
 30
0.0
 10
-98.84128672409925
 20
-89.1046274551108
 30
0.0
 10
-98.99880360455515
 20
-83.03246016544033
 30
0.0
 10
-99.02207340146194
 20
-81.00563346279
 30
0.0
 10
-99.01002998993064
 20
-76.94642762543103
 30
0.0
 10
-98.97467193879375
 20
-74.91437229704354
 30
0.0
 10
-98.79133140209662
 20
-69.13868089908556
 30
0.0
 10
-98.5734202483349
 20
-65.39634226959724
 30
0.0
 10
-98.25823762270392
 20
-61.65756854243852
 30
0.0
  0
SPLINE
  5
137
330
1F
100
AcDbEntity
  8
0
  6
Continuous
 62
     7
370
    15
100
AcDbSpline
210
0.0
220
0.0
230
1.0
 70
     8
 71
     3
 72
     8
 73
     4
 74
     0
 42
0.00000001
 43
0.00000001
 12
1.0
 22
0.0
 32
0.0
 13
1.0
 23
0.0
 33
0.0
 40
0.0
 40
0.0
 40
0.0
 40
0.0
 40
0.0400226850954134
 40
0.0400226850954134
 40
0.0400226850954134
 40
0.0400226850954134
 10
-92.15459406941146
 20
-132.9105228804071
 30
0.0
 10
-92.47941778265233
 20
-131.6601214756366
 30
0.0
 10
-92.79310062764739
 20
-130.4074478507918
 30
0.0
 10
-93.09555946620229
 20
-129.1524850495396
 30
0.0
  0
SPLINE
  5
139
330
1F
100
AcDbEntity
  8
0
  6
Continuous
 62
     7
370
    15
100
AcDbSpline
210
0.0
220
0.0
230
1.0
 70
     8
 71
     3
 72
    20
 73
    16
 74
     0
 42
0.00000001
 43
0.00000001
 12
1.0
 22
0.0
 32
0.0
 13
1.0
 23
0.0
 33
0.0
 40
0.3079560853093459
 40
0.3079560853093459
 40
0.3079560853093459
 40
0.3079560853093459
 40
0.3749999999999995
 40
0.3749999999999995
 40
0.4374999999999996
 40
0.4374999999999996
 40
0.4999999999999997
 40
0.4999999999999997
 40
0.7499999999999999
 40
0.7499999999999999
 40
0.8125
 40
0.8125
 40
0.875
 40
0.875
 40
1.0
 40
1.0
 40
1.0
 40
1.0
 10
-64.86863785806119
 20
-75.13828677981998
 30
0.0
 10
-64.9306740351063
 20
-76.55392525203149
 30
0.0
 10
-64.95102359703606
 20
-77.97173447284806
 30
0.0
 10
-64.90887372752572
 20
-80.71550299144822
 30
0.0
 10
-64.85174685309039
 20
-82.04305999644643
 30
0.0
 10
-64.6639092843335
 20
-84.69382776856307
 30
0.0
 10
-64.53380497052089
 20
-86.0101314406303
 30
0.0
 10
-63.70884634785173
 20
-92.54787744777731
 30
0.0
 10
-62.49224883879171
 20
-97.63839617940737
 30
0.0
 10
-60.36192230467591
 20
-103.84857975598
 30
0.0
 10
-59.90528689632734
 20
-105.0829453644205
 30
0.0
 10
-58.93270412652919
 20
-107.5367931393619
 30
0.0
 10
-58.41613275139196
 20
-108.7576365951925
 30
0.0
 10
-56.78468764728768
 20
-112.3883086617438
 30
0.0
 10
-55.59069104205629
 20
-114.7615742338748
 30
0.0
 10
-54.30049917685132
 20
-117.0921691469714
 30
0.0
  0
LWPOLYLINE
  5
14A
330
1F
100
AcDbEntity
  8
0
  6
Continuous
 62
     7
370
    15
100
AcDbPolyline
 90
       19
 70
   128
 43
0.0
 10
-25.3948493997
 20
-2.8514533526
 10
-25.540745101
 20
-2.2496351693
 10
-25.4470856071
 20
-1.6276540001
 10
-25.1251676351
 20
-1.0605299535
 10
-24.6138192436
 20
-0.6166665593
 10
-23.9747165953
 20
-0.3496002936
 10
-23.2849449016
 20
-0.2915432896
 10
-22.6277008088
 20
-0.4494980787
 10
-22.0822576544
 20
-0.8044129822
 10
-21.7144039327
 20
-1.3134800247
 10
-21.5685082314
 20
-1.915298208
 10
-21.6621677253
 20
-2.5372793772
 10
-21.9840856973
 20
-3.1044034238
 10
-22.4954340888
 20
-3.548266818
 10
-23.1345367371
 20
-3.8153330837
 10
-23.8243084308
 20
-3.8733900878
 10
-24.4815525236
 20
-3.7154352987
 10
-25.026995678
 20
-3.3605203952
 10
-25.3948493997
 20
-2.8514533526
  0
SPLINE
  5
14D
330
1F
100
AcDbEntity
  8
0
  6
Continuous
 62
     7
370
    15
100
AcDbSpline
210
0.0
220
0.0
230
1.0
 70
     8
 71
     3
 72
     9
 73
     5
 74
     0
 42
0.00000001
 43
0.00000001
 12
1.0
 22
0.0
 32
0.0
 13
1.0
 23
0.0
 33
0.0
 40
0.0
 40
0.0
 40
0.0
 40
0.0
 40
0.5253537189148904
 40
1.0
 40
1.0
 40
1.0
 40
1.0
 10
-39.50728477515766
 20
-123.998857132873
 30
0.0
 10
-39.50629186709365
 20
-124.034431787254
 30
0.0
 10
-39.50440188701309
 20
-124.1021474102718
 30
0.0
 10
-39.57864635798537
 20
-124.1385536909576
 30
0.0
 10
-39.61388622002351
 20
-124.1558337966933
 30
0.0
  0
SPLINE
  5
14F
330
1F
100
AcDbEntity
  8
0
  6
Continuous
 62
     7
370
    15
100
AcDbSpline
210
0.0
220
0.0
230
1.0
 70
     8
 71
     3
 72
     9
 73
     5
 74
     0
 42
0.00000001
 43
0.00000001
 12
1.0
 22
0.0
 32
0.0
 13
1.0
 23
0.0
 33
0.0
 40
0.0
 40
0.0
 40
0.0
 40
0.0
 40
0.5314561865849672
 40
0.9999999999999999
 40
0.9999999999999999
 40
0.9999999999999999
 40
0.9999999999999999
 10
-98.20510880105343
 20
-148.5273248312796
 30
0.0
 10
-98.19151333052415
 20
-148.5580073751625
 30
0.0
 10
-98.1659317851917
 20
-148.6157403447984
 30
0.0
 10
-98.1097695997252
 20
-148.5970679912604
 30
0.0
 10
-98.08345515517699
 20
-148.5883191755283
 30
0.0
  0
SPLINE
  5
152
330
1F
100
AcDbEntity
  8
0
  6
Continuous
 62
     7
370
    15
100
AcDbSpline
210
0.0
220
0.0
230
1.0
 70
     8
 71
     3
 72
     9
 73
     5
 74
     0
 42
0.00000001
 43
0.00000001
 12
1.0
 22
0.0
 32
0.0
 13
1.0
 23
0.0
 33
0.0
 40
0.0
 40
0.0
 40
0.0
 40
0.0
 40
0.4157497681224068
 40
0.9999999999999999
 40
0.9999999999999999
 40
0.9999999999999999
 40
0.9999999999999999
 10
-61.71470345590863
 20
-99.82097163608292
 30
0.0
 10
-61.51924211101518
 20
-100.6692809293398
 30
0.0
 10
-61.04910030967107
 20
-102.7097133199291
 30
0.0
 10
-60.3467575053877
 20
-104.6848467658234
 30
0.0
 10
-59.93641355912758
 20
-105.8388189395764
 30
0.0
  0
SPLINE
  5
153
330
1F
100
AcDbEntity
  8
0
  6
Continuous
 62
     7
370
    15
100
AcDbSpline
210
0.0
220
0.0
230
1.0
 70
     8
 71
     3
 72
     9
 73
     5
 74
     0
 42
0.00000001
 43
0.00000001
 12
1.0
 22
0.0
 32
0.0
 13
1.0
 23
0.0
 33
0.0
 40
0.0
 40
0.0
 40
0.0
 40
0.0
 40
0.4808767082760746
 40
1.0
 40
1.0
 40
1.0
 40
1.0
 10
-54.72633927465879
 20
-117.2701179083965
 30
0.0
 10
-55.59682989323759
 20
-115.614397094032
 30
0.0
 10
-57.40704570031937
 20
-112.1712675228367
 30
0.0
 10
-58.81378291949854
 20
-108.5612619229686
 30
0.0
 10
-59.54405297530938
 20
-106.6872239328233
 30
0.0
  0
LWPOLYLINE
  5
164
330
1F
100
AcDbEntity
  8
0
  6
Continuous
 62
     7
370
    15
100
AcDbPolyline
 90
       19
 70
   128
 43
0.0
 10
-98.180191712
 20
-26.8287320211
 10
-98.5480454337
 20
-26.3196649785
 10
-99.0934885881
 20
-25.964750075
 10
-99.7507326809
 20
-25.8067952859
 10
-100.4405043746
 20
-25.86485229
 10
-101.0796070229
 20
-26.1319185557
 10
-101.5909554144
 20
-26.5757819499
 10
-101.9128733863
 20
-27.1429059965
 10
-102.0065328803
 20
-27.7648871657
 10
-101.860637179
 20
-28.366705349
 10
-101.4927834572
 20
-28.8757723915
 10
-100.9473403028
 20
-29.230687295
 10
-100.29009621
 20
-29.3886420841
 10
-99.6003245164
 20
-29.3305850801
 10
-98.961221868
 20
-29.0635188144
 10
-98.4498734765
 20
-28.6196554202
 10
-98.1279555046
 20
-28.0525313736
 10
-98.0342960107
 20
-27.4305502044
 10
-98.180191712
 20
-26.8287320211
  0
LWPOLYLINE
  5
165
330
1F
100
AcDbEntity
  8
0
  6
Continuous
 62
     7
370
    15
100
AcDbPolyline
 90
       19
 70
   128
 43
0.0
 10
-84.344050906
 20
-120.8463381036
 10
-84.7119046278
 20
-120.337271061
 10
-85.2573477822
 20
-119.9823561575
 10
-85.9145918749
 20
-119.8244013684
 10
-86.6043635686
 20
-119.8824583724
 10
-87.243466217
 20
-120.1495246381
 10
-87.7548146085
 20
-120.5933880323
 10
-88.0767325804
 20
-121.1605120789
 10
-88.1703920743
 20
-121.7824932481
 10
-88.024496373
 20
-122.3843114314
 10
-87.6566426513
 20
-122.893378474
 10
-87.1111994969
 20
-123.2482933775
 10
-86.4539554041
 20
-123.4062481666
 10
-85.7641837104
 20
-123.3481911625
 10
-85.1250810621
 20
-123.0811248969
 10
-84.6137326706
 20
-122.6372615027
 10
-84.2918146987
 20
-122.070137456
 10
-84.1981552047
 20
-121.4481562869
 10
-84.344050906
 20
-120.8463381036
  0
SPLINE
  5
169
330
1F
100
AcDbEntity
  8
0
  6
Continuous
 62
     7
370
    15
100
AcDbSpline
210
0.0
220
0.0
230
1.0
 70
     8
 71
     3
 72
    11
 73
     7
 74
     0
 42
0.00000001
 43
0.00000001
 12
1.0
 22
0.0
 32
0.0
 13
1.0
 23
0.0
 33
0.0
 40
0.0
 40
0.0
 40
0.0
 40
0.0
 40
0.2183858591009302
 40
0.5704608475023961
 40
0.8473145083251692
 40
1.0
 40
1.0
 40
1.0
 40
1.0
 10
-97.01727672752072
 20
-103.8519371685905
 30
0.0
 10
-97.27196970779492
 20
-101.3643148022806
 30
0.0
 10
-97.93727090439383
 20
-94.86622390393565
 30
0.0
 10
-98.17982109410633
 20
-85.13408425083846
 30
0.0
 10
-98.09628610683305
 20
-76.14271494589286
 30
0.0
 10
-97.7545398987619
 20
-71.19744129360832
 30
0.0
 10
-97.6330615946214
 20
-69.43957699957318
 30
0.0
  0
LWPOLYLINE
  5
17C
330
1F
100
AcDbEntity
  8
0
  6
Continuous
 62
     7
370
    15
100
AcDbPolyline
 90
       19
 70
   128
 43
0.0
 10
-63.1420219439
 20
-22.2747033036
 10
-62.7741682222
 20
-22.7837703462
 10
-62.2287250678
 20
-23.1386852497
 10
-61.571480975
 20
-23.2966400388
 10
-60.8817092813
 20
-23.2385830347
 10
-60.242606633
 20
-22.9715167691
 10
-59.7312582415
 20
-22.5276533749
 10
-59.4093402696
 20
-21.9605293282
 10
-59.3156807756
 20
-21.3385481591
 10
-59.4615764769
 20
-20.7367299758
 10
-59.8294301987
 20
-20.2276629332
 10
-60.3748733531
 20
-19.8727480297
 10
-61.0321174458
 20
-19.7147932406
 10
-61.7218891395
 20
-19.7728502446
 10
-62.3609917879
 20
-20.0399165103
 10
-62.8723401793
 20
-20.4837799045
 10
-63.1942581513
 20
-21.0509039511
 10
-63.2879176452
 20
-21.6728851203
 10
-63.1420219439
 20
-22.2747033036
  0
SPLINE
  5
186
330
1F
100
AcDbEntity
  8
0
  6
Continuous
 62
     7
370
    15
100
AcDbSpline
210
0.0
220
0.0
230
1.0
 70
     8
 71
     3
 72
    12
 73
     8
 74
     0
 42
0.00000001
 43
0.00000001
 12
1.0
 22
0.0
 32
0.0
 13
1.0
 23
0.0
 33
0.0
 40
0.0
 40
0.0
 40
0.0
 40
0.0
 40
0.4999999999999999
 40
0.4999999999999999
 40
0.7499999999999999
 40
0.7499999999999999
 40
1.0
 40
1.0
 40
1.0
 40
1.0
 10
-43.2787497915305
 20
-16.78755887576305
 30
0.0
 10
-43.13924266098891
 20
-16.93143898382787
 30
0.0
 10
-42.94542858940144
 20
-17.05183303891448
 30
0.0
 10
-42.63710234000811
 20
-17.14998192580595
 30
0.0
 10
-42.53127572640459
 20
-17.16938271462995
 30
0.0
 10
-42.31701913571685
 20
-17.17125713424359
 30
0.0
 10
-42.20977882650784
 20
-17.15289820115994
 30
0.0
 10
-42.10904988091735
 20
-17.1108058965607
 30
0.0
  0
LWPOLYLINE
  5
18A
330
1F
100
AcDbEntity
  8
0
  6
Continuous
 62
     7
370
    15
100
AcDbPolyline
 90
        4
 70
   128
 43
0.0
 10
-2.3858156923
 20
-0.6262550225
 10
-2.381870137
 20
-0.6218073877
 10
-2.3813694178
 20
-0.5856412642
 10
-2.3958566783
 20
-0.5155778308
  0
LWPOLYLINE
  5
18E
330
1F
100
AcDbEntity
  8
0
  6
Continuous
 62
     7
370
    15
100
AcDbPolyline
 90
       19
 70
   128
 43
0.0
 10
-56.0499515007
 20
12.497940347
 10
-56.0127968018
 20
12.3302515937
 10
-56.0058800341
 20
12.2301881554
 10
-56.0294160374
 20
12.200858072
 10
-56.0826737668
 20
12.2431723563
 10
-56.1639990003
 20
12.3558166974
 10
-56.2708657194
 20
12.5352922834
 10
-56.3999545696
 20
12.7760244778
 10
-56.5472559613
 20
13.070535971
 10
-56.7081946106
 20
13.4096790311
 10
-56.8777716512
 20
13.7829196385
 10
-57.050719902
 20
14.1786646801
 10
-57.2216674701
 20
14.5846220395
 10
-57.3853046049
 20
14.9881823984
 10
-57.5365486232
 20
15.3768108912
 10
-57.6707017804
 20
15.7384364464
 10
-57.7835971862
 20
16.0618267225
 10
-57.8717282305
 20
16.3369369924
 10
-57.9323575019
 20
16.5552221396
  0
LWPOLYLINE
  5
1A7
330
1F
100
AcDbEntity
  8
0
  6
Continuous
 62
     7
370
    15
100
AcDbPolyline
 90
       10
 70
   128
 43
0.0
 10
-109.2355447691
 20
9.5908419652
 10
-109.1141545592
 20
9.1925344707
 10
-108.9168179156
 20
8.6463897006
 10
-108.6673365499
 20
8.0182807745
 10
-108.3958015966
 20
7.3839668988
 10
-108.1349641786
 20
6.8199556882
 10
-107.9162851381
 20
6.3942752188
 10
-107.7661403946
 20
6.1582688375
 10
-107.7026396202
 20
6.1404023971
 10
-107.7334419454
 20
6.3428308538
  0
SPLINE
  5
1C2
330
1F
100
AcDbEntity
  8
0
  6
Continuous
 62
     7
370
    15
100
AcDbSpline
210
0.0
220
0.0
230
1.0
 70
     8
 71
     3
 72
    11
 73
     7
 74
     0
 42
0.00000001
 43
0.00000001
 12
1.0
 22
0.0
 32
0.0
 13
1.0
 23
0.0
 33
0.0
 40
0.0
 40
0.0
 40
0.0
 40
0.0
 40
0.2817687246685648
 40
0.5634843160142207
 40
0.7897643097898864
 40
1.0
 40
1.0
 40
1.0
 40
1.0
 10
78.89836583519724
 20
-3.989071598906054
 30
0.0
 10
81.34818909269859
 20
-5.092099823998542
 30
0.0
 10
86.24737364283855
 20
-7.29794827538972
 30
0.0
 10
92.57588253463844
 20
-11.19385989897245
 30
0.0
 10
97.94792406189737
 20
-15.17702262193773
 30
0.0
 10
100.8774961507675
 20
-17.91885402358782
 30
0.0
 10
102.2884434150219
 20
-19.23938118518334
 30
0.0
  0
LWPOLYLINE
  5
1C3
330
1F
100
AcDbEntity
  8
0
  6
Continuous
 62
     7
370
    15
100
AcDbPolyline
 90
        8
 70
   128
 43
0.0
 10
119.3592739356
 20
35.4733810666
 10
119.4877663413
 20
35.6039340035
 10
119.6155959504
 20
35.7125951669
 10
119.7378503428
 20
35.7951887691
 10
119.8498313506
 20
35.8485407844
 10
119.9472356067
 20
35.8706009247
 10
120.0263199199
 20
35.8605214313
 10
120.0569167263
 20
35.8442870531
  0
LWPOLYLINE
  5
1C8
330
1F
100
AcDbEntity
  8
0
  6
Continuous
 62
     7
370
    15
100
AcDbPolyline
 90
        9
 70
   128
 43
0.0
 10
118.8143984762
 20
36.1292758033
 10
118.9960408463
 20
36.1958493825
 10
119.1749778965
 20
36.242989879
 10
119.3443331763
 20
36.26888571
 10
119.4975984573
 20
36.2725417131
 10
119.6288838407
 20
36.2538173902
 10
119.7331441029
 20
36.2134323066
 10
119.8063725803
 20
36.1529384383
 10
119.8308971901
 20
36.1148956697
  0
LWPOLYLINE
  5
1CD
330
1F
100
AcDbEntity
  8
0
  6
Continuous
 62
     7
370
    15
100
AcDbPolyline
 90
        9
 70
   128
 43
0.0
 10
-106.9628027931
 20
-59.1013981625
 10
-107.1538288458
 20
-59.1043646246
 10
-107.3332387799
 20
-59.1240917845
 10
-107.4941379722
 20
-59.1598215387
 10
-107.630343157
 20
-59.2101808128
 10
-107.7366200455
 20
-59.273234328
 10
-107.8088844764
 20
-59.3465589731
 10
-107.8443593682
 20
-59.4273369232
 10
-107.8475549569
 20
-59.4520531687
  0
LINE
  5
1D4
330
1F
100
AcDbEntity
  8
0
  6
Continuous
 62
     7
370
    15
100
AcDbLine
 10
123.1063061225
 20
-56.161258765
 30
0.0
 11
181.5756588261
 21
-31.728263966
 31
0.0
  0
LINE
  5
1D5
330
1F
100
AcDbEntity
  8
0
  6
Continuous
 62
     7
370
    15
100
AcDbLine
 10
64.397218454
 20
27.3586070371
 30
0.0
 11
74.2911492906
 21
5.9648670162
 31
0.0
  0
LINE
  5
1D6
330
1F
100
AcDbEntity
  8
0
  6
Continuous
 62
     7
370
    15
100
AcDbLine
 10
76.2790412102
 20
1.6664295581
 30
0.0
 11
78.909007341
 21
-4.0203710266
 31
0.0
  0
LINE
  5
1D7
330
1F
100
AcDbEntity
  8
0
  6
Continuous
 62
     7
370
    15
100
AcDbLine
 10
71.4441106224
 20
13.5516527253
 30
0.0
 11
72.1914051995
 21
10.6019238277
 31
0.0
  0
LINE
  5
1D8
330
1F
100
AcDbEntity
  8
0
  6
Continuous
 62
     7
370
    15
100
AcDbLine
 10
119.8332817109
 20
36.1099211519
 30
0.0
 11
105.6226881677
 21
66.8376216812
 31
0.0
  0
LINE
  5
1D9
330
1F
100
AcDbEntity
  8
0
  6
Continuous
 62
     7
370
    15
100
AcDbLine
 10
42.4489861404
 20
19.1706420741
 30
0.0
 11
41.7016915633
 21
22.1203709718
 31
0.0
  0
LINE
  5
1DA
330
1F
100
AcDbEntity
  8
0
  6
Continuous
 62
     7
370
    15
100
AcDbLine
 10
2.1834070624
 20
1.2831178479
 30
0.0
 11
27.9292182458
 21
12.0416989105
 31
0.0
  0
LINE
  5
1DB
330
1F
100
AcDbEntity
  8
0
  6
Continuous
 62
     7
370
    15
100
AcDbLine
 10
31.3974960668
 20
13.4910122695
 30
0.0
 11
64.4273602349
 21
27.2934311798
 31
0.0
  0
LINE
  5
1DC
330
1F
100
AcDbEntity
  8
0
  6
Continuous
 62
     7
370
    15
100
AcDbLine
 10
18.5542482902
 20
64.4884108218
 30
0.0
 11
36.033157649
 21
26.69360016
 31
0.0
  0
LINE
  5
1DD
330
1F
100
AcDbEntity
  8
0
  6
Continuous
 62
     7
370
    15
100
AcDbLine
 10
101.2360338902
 20
64.4588187792
 30
0.0
 11
71.5411931463
 21
79.1957125026
 31
0.0
  0
LINE
  5
1DE
330
1F
100
AcDbEntity
  8
0
  6
Continuous
 62
     7
370
    15
100
AcDbLine
 10
16.7335331866
 20
69.8559674013
 30
0.0
 11
16.9184268331
 21
69.1261532841
 31
0.0
  0
LINE
  5
1DF
330
1F
100
AcDbEntity
  8
0
  6
Continuous
 62
     7
370
    15
100
AcDbLine
 10
58.9335871038
 20
86.925908206
 30
0.0
 11
59.1619899088
 21
86.0243542876
 31
0.0
  0
LINE
  5
1E0
330
1F
100
AcDbEntity
  8
0
  6
Continuous
 62
     7
370
    15
100
AcDbLine
 10
-102.067141294
 20
-134.5190634389
 30
0.0
 11
-101.3996694886
 21
-137.153715065
 31
0.0
  0
LINE
  5
1E1
330
1F
100
AcDbEntity
  8
0
  6
Continuous
 62
     7
370
    15
100
AcDbLine
 10
-98.0823550717
 20
-148.5909019655
 30
0.0
 11
-39.6130023682
 21
-124.1579071665
 31
0.0
  0
LINE
  5
1E2
330
1F
100
AcDbEntity
  8
0
  6
Continuous
 62
     7
370
    15
100
AcDbLine
 10
-62.6616421259
 20
-96.3222627113
 30
0.0
 11
-61.7716797187
 21
-99.8351315463
 31
0.0
  0
LINE
  5
1E3
330
1F
100
AcDbEntity
  8
0
  6
Continuous
 62
     7
370
    15
100
AcDbLine
 10
-121.4423423273
 20
-31.0421394729
 30
0.0
 11
-107.9036655299
 21
-60.3169480816
 31
0.0
  0
LINE
  5
1E4
330
1F
100
AcDbEntity
  8
0
  6
Continuous
 62
     7
370
    15
100
AcDbLine
 10
-122.1585643636
 20
-28.2287153157
 30
0.0
 11
-121.4544684513
 21
-31.0079299959
 31
0.0
  0
LINE
  5
1E5
330
1F
100
AcDbEntity
  8
0
  6
Continuous
 62
     7
370
    15
100
AcDbLine
 10
-64.542283771
 20
-26.6000103502
 30
0.0
 11
-30.7613802553
 21
-12.4837494076
 31
0.0
  0
LINE
  5
1E6
330
1F
100
AcDbEntity
  8
0
  6
Continuous
 62
     7
370
    15
100
AcDbLine
 10
-27.2931024343
 20
-11.0344360487
 30
0.0
 11
-2.3858156923
 21
-0.6262550225
 31
0.0
  0
LINE
  5
1E7
330
1F
100
AcDbEntity
  8
0
  6
Continuous
 62
     7
370
    15
100
AcDbLine
 10
-109.4395754609
 20
3.9388428319
 30
0.0
 11
-117.9794842727
 21
-26.4200828781
 31
0.0
  0
LINE
  5
1E8
330
1F
100
AcDbEntity
  8
0
  6
Continuous
 62
     7
370
    15
100
AcDbLine
 10
-112.1035648831
 20
15.4276730096
 30
0.0
 11
-111.8810615525
 21
14.5494055577
 31
0.0
  0
LINE
  5
1E9
330
1F
100
AcDbEntity
  8
0
  6
Continuous
 62
     7
370
    15
100
AcDbLine
 10
78.2308940298
 20
-1.3544199727
 30
0.0
 11
78.8983658352
 21
-3.9890715989
 31
0.0
  0
LINE
  5
1EA
330
1F
100
AcDbEntity
  8
0
  6
Continuous
 62
     7
370
    15
100
AcDbLine
 10
122.3130347522
 20
-53.4643027891
 30
0.0
 11
122.9805065576
 21
-56.0989544153
 31
0.0
  0
LINE
  5
1EB
330
1F
100
AcDbEntity
  8
0
  6
Continuous
 62
     7
370
    15
100
AcDbLine
 10
41.2612851226
 20
-7.8375518941
 30
0.0
 11
30.0355629658
 21
16.435933067
 31
0.0
  0
LINE
  5
1EC
330
1F
100
AcDbEntity
  8
0
  6
Continuous
 62
     7
370
    15
100
AcDbLine
 10
74.8330566848
 20
6.1913176254
 30
0.0
 11
41.2612851226
 21
-7.8375518941
 31
0.0
  0
LINE
  5
1ED
330
1F
100
AcDbEntity
  8
0
  6
Continuous
 62
     7
370
    15
100
AcDbLine
 10
71.493374352
 20
13.4127442515
 30
0.0
 11
74.8330566848
 21
6.1913176254
 31
0.0
  0
LINE
  5
1EE
330
1F
100
AcDbEntity
  8
0
  6
Continuous
 62
     7
370
    15
100
AcDbLine
 10
72.0379600128
 20
14.6092403613
 30
0.0
 11
80.3189623136
 21
18.0696803489
 31
0.0
  0
LINE
  5
1EF
330
1F
100
AcDbEntity
  8
0
  6
Continuous
 62
     7
370
    15
100
AcDbLine
 10
80.3189623136
 20
18.0696803489
 30
0.0
 11
80.3814010513
 21
17.9346684771
 31
0.0
  0
LINE
  5
1F0
330
1F
100
AcDbEntity
  8
0
  6
Continuous
 62
     7
370
    15
100
AcDbLine
 10
88.7883587324
 20
21.4477423149
 30
0.0
 11
80.3814010513
 21
17.9346684771
 31
0.0
  0
LINE
  5
1F1
330
1F
100
AcDbEntity
  8
0
  6
Continuous
 62
     7
370
    15
100
AcDbLine
 10
90.5408831861
 20
17.6582421494
 30
0.0
 11
88.7883587324
 21
21.4477423149
 31
0.0
  0
LINE
  5
1F2
330
1F
100
AcDbEntity
  8
0
  6
Continuous
 62
     7
370
    15
100
AcDbLine
 10
90.4761345756
 20
15.0726453045
 30
0.0
 11
90.5408831861
 21
17.6582421494
 31
0.0
  0
LINE
  5
1F3
330
1F
100
AcDbEntity
  8
0
  6
Continuous
 62
     7
370
    15
100
AcDbLine
 10
88.5273876492
 20
16.8168487748
 30
0.0
 11
90.4761345756
 21
15.0726453045
 31
0.0
  0
LINE
  5
1F4
330
1F
100
AcDbEntity
  8
0
  6
Continuous
 62
     7
370
    15
100
AcDbLine
 10
88.5273876492
 20
16.8168487748
 30
0.0
 11
77.5837981049
 21
12.2437749497
 31
0.0
  0
LINE
  5
1F5
330
1F
100
AcDbEntity
  8
0
  6
Continuous
 62
     7
370
    15
100
AcDbLine
 10
77.5837981049
 20
12.2437749497
 30
0.0
 11
82.8975760843
 21
4.6418453513
 31
0.0
  0
LINE
  5
1F6
330
1F
100
AcDbEntity
  8
0
  6
Continuous
 62
     7
370
    15
100
AcDbLine
 10
82.8975760843
 20
4.6418453513
 30
0.0
 11
89.1940588264
 21
-1.1210245984
 31
0.0
  0
LINE
  5
1F7
330
1F
100
AcDbEntity
  8
0
  6
Continuous
 62
     7
370
    15
100
AcDbLine
 10
89.1940588264
 20
-1.1210245984
 30
0.0
 11
98.1009695652
 21
-5.009629358
 31
0.0
  0
LINE
  5
1F8
330
1F
100
AcDbEntity
  8
0
  6
Continuous
 62
     7
370
    15
100
AcDbLine
 10
98.1009695652
 20
-5.009629358
 30
0.0
 11
103.3307219774
 21
-4.8516512316
 31
0.0
  0
LINE
  5
1F9
330
1F
100
AcDbEntity
  8
0
  6
Continuous
 62
     7
370
    15
100
AcDbLine
 10
128.7057726285
 20
-40.6180663829
 30
0.0
 11
166.5598675211
 21
-24.7997126495
 31
0.0
  0
LINE
  5
1FA
330
1F
100
AcDbEntity
  8
0
  6
Continuous
 62
     7
370
    15
100
AcDbLine
 10
164.2830455503
 20
-21.59989849
 30
0.0
 11
167.3242184934
 21
-20.329062415
 31
0.0
  0
LINE
  5
1FB
330
1F
100
AcDbEntity
  8
0
  6
Continuous
 62
     7
370
    15
100
AcDbLine
 10
167.3242184934
 20
-20.329062415
 30
0.0
 11
157.9356571364
 21
-9.1628970219
 31
0.0
  0
LINE
  5
1FC
330
1F
100
AcDbEntity
  8
0
  6
Continuous
 62
     7
370
    15
100
AcDbLine
 10
157.9356571364
 20
-9.1628970219
 30
0.0
 11
148.4639753442
 21
-2.1405608191
 31
0.0
  0
LINE
  5
1FD
330
1F
100
AcDbEntity
  8
0
  6
Continuous
 62
     7
370
    15
100
AcDbLine
 10
115.4556080771
 20
27.6485215539
 30
0.0
 11
112.8033903754
 21
33.3834369203
 31
0.0
  0
LINE
  5
1FE
330
1F
100
AcDbEntity
  8
0
  6
Continuous
 62
     7
370
    15
100
AcDbLine
 10
112.8033903754
 20
33.3834369203
 30
0.0
 11
113.1744660702
 21
33.5385009
 31
0.0
  0
LINE
  5
1FF
330
1F
100
AcDbEntity
  8
0
  6
Continuous
 62
     7
370
    15
100
AcDbLine
 10
100.327414457
 20
61.3178018458
 30
0.0
 11
113.1744660702
 21
33.5385009
 31
0.0
  0
LINE
  5
200
330
1F
100
AcDbEntity
  8
0
  6
Continuous
 62
     7
370
    15
100
AcDbLine
 10
100.327414457
 20
61.3178018458
 30
0.0
 11
101.8543265594
 21
66.596201794
 31
0.0
  0
LINE
  5
201
330
1F
100
AcDbEntity
  8
0
  6
Continuous
 62
     7
370
    15
100
AcDbLine
 10
101.8543265594
 20
66.596201794
 30
0.0
 11
104.2595782121
 21
67.6013010196
 31
0.0
  0
LINE
  5
202
330
1F
100
AcDbEntity
  8
0
  6
Continuous
 62
     7
370
    15
100
AcDbLine
 10
118.8143984762
 20
36.1292758033
 30
0.0
 11
104.2595782121
 21
67.6013010196
 31
0.0
  0
LINE
  5
203
330
1F
100
AcDbEntity
  8
0
  6
Continuous
 62
     7
370
    15
100
AcDbLine
 10
122.8929322448
 20
-51.7674552273
 30
0.0
 11
179.4845968102
 21
-28.1191030213
 31
0.0
  0
LINE
  5
204
330
1F
100
AcDbEntity
  8
0
  6
Continuous
 62
     7
370
    15
100
AcDbLine
 10
76.0681418245
 20
3.5206813718
 30
0.0
 11
77.5405317503
 21
0.3369187397
 31
0.0
  0
LINE
  5
205
330
1F
100
AcDbEntity
  8
0
  6
Continuous
 62
     7
370
    15
100
AcDbLine
 10
39.3359180175
 20
-11.8288682937
 30
0.0
 11
76.0681418245
 21
3.5206813718
 31
0.0
  0
LINE
  5
206
330
1F
100
AcDbEntity
  8
0
  6
Continuous
 62
     7
370
    15
100
AcDbLine
 10
26.8751107209
 20
15.115252921
 30
0.0
 11
39.3359180175
 21
-11.8288682937
 31
0.0
  0
LINE
  5
207
330
1F
100
AcDbEntity
  8
0
  6
Continuous
 62
     7
370
    15
100
AcDbLine
 10
26.8751107209
 20
15.115252921
 30
0.0
 11
1.3946489701
 21
4.4675552701
 31
0.0
  0
LINE
  5
208
330
1F
100
AcDbEntity
  8
0
  6
Continuous
 62
     7
370
    15
100
AcDbLine
 10
1.3946489701
 20
4.4675552701
 30
0.0
 11
-1.6095566771
 21
10.963577493
 31
0.0
  0
LINE
  5
209
330
1F
100
AcDbEntity
  8
0
  6
Continuous
 62
     7
370
    15
100
AcDbLine
 10
-1.6095566771
 20
10.963577493
 30
0.0
 11
2.0710401471
 21
12.5016140695
 31
0.0
  0
LINE
  5
20A
330
1F
100
AcDbEntity
  8
0
  6
Continuous
 62
     7
370
    15
100
AcDbLine
 10
3.1976172648
 20
10.0656057359
 30
0.0
 11
2.0710401471
 21
12.5016140695
 31
0.0
  0
LINE
  5
20B
330
1F
100
AcDbEntity
  8
0
  6
Continuous
 62
     7
370
    15
100
AcDbLine
 10
8.7181341082
 20
12.372502479
 30
0.0
 11
3.1976172648
 21
10.0656057359
 31
0.0
  0
LINE
  5
20C
330
1F
100
AcDbEntity
  8
0
  6
Continuous
 62
     7
370
    15
100
AcDbLine
 10
8.7181341082
 20
12.372502479
 30
0.0
 11
7.5915569904
 21
14.8085108126
 31
0.0
  0
LINE
  5
20D
330
1F
100
AcDbEntity
  8
0
  6
Continuous
 62
     7
370
    15
100
AcDbLine
 10
7.5915569904
 20
14.8085108126
 30
0.0
 11
36.5750650432
 21
26.9200507692
 31
0.0
  0
LINE
  5
20E
330
1F
100
AcDbEntity
  8
0
  6
Continuous
 62
     7
370
    15
100
AcDbLine
 10
36.5750650432
 20
26.9200507692
 30
0.0
 11
27.1634391483
 21
47.2708982629
 31
0.0
  0
LINE
  5
20F
330
1F
100
AcDbEntity
  8
0
  6
Continuous
 62
     7
370
    15
100
AcDbLine
 10
27.1634391483
 20
47.2708982629
 30
0.0
 11
29.4383636019
 21
48.221536756
 31
0.0
  0
LINE
  5
210
330
1F
100
AcDbEntity
  8
0
  6
Continuous
 62
     7
370
    15
100
AcDbLine
 10
29.4383636019
 20
48.221536756
 30
0.0
 11
38.071049151
 21
29.4947710779
 31
0.0
  0
LINE
  5
211
330
1F
100
AcDbEntity
  8
0
  6
Continuous
 62
     7
370
    15
100
AcDbLine
 10
38.071049151
 20
29.4947710779
 30
0.0
 11
38.2682386768
 21
29.5769435973
 31
0.0
  0
LINE
  5
212
330
1F
100
AcDbEntity
  8
0
  6
Continuous
 62
     7
370
    15
100
AcDbLine
 10
38.2682386768
 20
29.5769435973
 30
0.0
 11
41.6524278336
 21
22.2592794457
 31
0.0
  0
LINE
  5
213
330
1F
100
AcDbEntity
  8
0
  6
Continuous
 62
     7
370
    15
100
AcDbLine
 10
41.1078421728
 20
21.0627833358
 30
0.0
 11
30.0355629658
 21
16.435933067
 31
0.0
  0
LINE
  5
214
330
1F
100
AcDbEntity
  8
0
  6
Continuous
 62
     7
370
    15
100
AcDbLine
 10
181.0108587781
 20
-28.9358350907
 30
0.0
 11
122.3130347522
 21
-53.4643027891
 31
0.0
  0
LINE
  5
215
330
1F
100
AcDbEntity
  8
0
  6
Continuous
 62
     7
370
    15
100
AcDbLine
 10
122.9805065576
 20
-56.0989544153
 30
0.0
 11
181.6783305835
 21
-31.5704867169
 31
0.0
  0
LINE
  5
216
330
1F
100
AcDbEntity
  8
0
  6
Continuous
 62
     7
370
    15
100
AcDbLine
 10
181.0108587781
 20
-28.9358350907
 30
0.0
 11
181.6783305835
 21
-31.5704867169
 31
0.0
  0
LINE
  5
217
330
1F
100
AcDbEntity
  8
0
  6
Continuous
 62
     7
370
    15
100
AcDbLine
 10
118.1602550765
 20
-18.7486349078
 30
0.0
 11
121.1324166812
 21
-25.1753679949
 31
0.0
  0
LINE
  5
218
330
1F
100
AcDbEntity
  8
0
  6
Continuous
 62
     7
370
    15
100
AcDbLine
 10
113.9787100859
 20
-15.2900445436
 30
0.0
 11
118.1602550765
 21
-18.7486349078
 31
0.0
  0
LINE
  5
219
330
1F
100
AcDbEntity
  8
0
  6
Continuous
 62
     7
370
    15
100
AcDbLine
 10
89.0502405635
 20
14.7530383343
 30
0.0
 11
78.8184846402
 21
10.477423372
 31
0.0
  0
LINE
  5
21A
330
1F
100
AcDbEntity
  8
0
  6
Continuous
 62
     7
370
    15
100
AcDbLine
 10
90.9989874898
 20
13.0088348639
 30
0.0
 11
89.0502405635
 21
14.7530383343
 31
0.0
  0
LINE
  5
21B
330
1F
100
AcDbEntity
  8
0
  6
Continuous
 62
     7
370
    15
100
AcDbLine
 10
91.0637361003
 20
15.5944317089
 30
0.0
 11
90.9989874898
 21
13.0088348639
 31
0.0
  0
LINE
  5
21C
330
1F
100
AcDbEntity
  8
0
  6
Continuous
 62
     7
370
    15
100
AcDbLine
 10
69.5760440507
 20
40.3659532442
 30
0.0
 11
79.9572672616
 21
17.9185363236
 31
0.0
  0
LINE
  5
21D
330
1F
100
AcDbEntity
  8
0
  6
Continuous
 62
     7
370
    15
100
AcDbLine
 10
48.7196673088
 20
31.6505541351
 30
0.0
 11
69.5760440507
 21
40.3659532442
 31
0.0
  0
LINE
  5
21E
330
1F
100
AcDbEntity
  8
0
  6
Continuous
 62
     7
370
    15
100
AcDbLine
 10
34.4512433834
 20
62.6028493305
 30
0.0
 11
48.7196673088
 21
31.6505541351
 31
0.0
  0
LINE
  5
21F
330
1F
100
AcDbEntity
  8
0
  6
Continuous
 62
     7
370
    15
100
AcDbLine
 10
71.8535706957
 20
78.2324198052
 30
0.0
 11
34.4512433834
 21
62.6028493305
 31
0.0
  0
LINE
  5
220
330
1F
100
AcDbEntity
  8
0
  6
Continuous
 62
     7
370
    15
100
AcDbLine
 10
98.8524559208
 20
63.253404271
 30
0.0
 11
71.8535706957
 21
78.2324198052
 31
0.0
  0
LINE
  5
221
330
1F
100
AcDbEntity
  8
0
  6
Continuous
 62
     7
370
    15
100
AcDbLine
 10
113.3262432896
 20
31.3196264798
 30
0.0
 11
98.8524559208
 21
63.253404271
 31
0.0
  0
LINE
  5
222
330
1F
100
AcDbEntity
  8
0
  6
Continuous
 62
     7
370
    15
100
AcDbLine
 10
115.9784609913
 20
25.5847111134
 30
0.0
 11
113.3262432896
 21
31.3196264798
 31
0.0
  0
LINE
  5
223
330
1F
100
AcDbEntity
  8
0
  6
Continuous
 62
     7
370
    15
100
AcDbLine
 10
148.9868282312
 20
-4.2043712296
 30
0.0
 11
115.9784609913
 21
25.5847111134
 31
0.0
  0
LINE
  5
224
330
1F
100
AcDbEntity
  8
0
  6
Continuous
 62
     7
370
    15
100
AcDbLine
 10
158.4585100506
 20
-11.2267074624
 30
0.0
 11
148.9868282312
 21
-4.2043712296
 31
0.0
  0
LINE
  5
225
330
1F
100
AcDbEntity
  8
0
  6
Continuous
 62
     7
370
    15
100
AcDbLine
 10
166.4270374914
 20
-20.703973676
 30
0.0
 11
158.4585100506
 21
-11.2267074624
 31
0.0
  0
LINE
  5
226
330
1F
100
AcDbEntity
  8
0
  6
Continuous
 62
     7
370
    15
100
AcDbLine
 10
165.830954539
 20
-25.1043085835
 30
0.0
 11
164.8058984646
 21
-23.6637089305
 31
0.0
  0
LINE
  5
227
330
1F
100
AcDbEntity
  8
0
  6
Continuous
 62
     7
370
    15
100
AcDbLine
 10
164.8058984646
 20
-23.6637089305
 30
0.0
 11
164.2830455503
 21
-21.59989849
 31
0.0
  0
LINE
  5
228
330
1F
100
AcDbEntity
  8
0
  6
Continuous
 62
     7
370
    15
100
AcDbLine
 10
158.4585100506
 20
-11.2267074624
 30
0.0
 11
157.9356571364
 21
-9.1628970219
 31
0.0
  0
LINE
  5
229
330
1F
100
AcDbEntity
  8
0
  6
Continuous
 62
     7
370
    15
100
AcDbLine
 10
118.5273645695
 20
-20.1976933022
 30
0.0
 11
119.8735550022
 21
-23.1085735794
 31
0.0
  0
LINE
  5
22A
330
1F
100
AcDbEntity
  8
0
  6
Continuous
 62
     7
370
    15
100
AcDbLine
 10
118.1602550765
 20
-18.7486349078
 30
0.0
 11
118.5273645695
 21
-20.1976933022
 31
0.0
  0
LINE
  5
22B
330
1F
100
AcDbEntity
  8
0
  6
Continuous
 62
     7
370
    15
100
AcDbLine
 10
148.9868282312
 20
-4.2043712296
 30
0.0
 11
148.4639753442
 21
-2.1405608191
 31
0.0
  0
LINE
  5
22C
330
1F
100
AcDbEntity
  8
0
  6
Continuous
 62
     7
370
    15
100
AcDbLine
 10
116.8225442983
 20
-18.7876223892
 30
0.0
 11
118.5273645695
 21
-20.1976933022
 31
0.0
  0
LINE
  5
22D
330
1F
100
AcDbEntity
  8
0
  6
Continuous
 62
     7
370
    15
100
AcDbLine
 10
115.4556080771
 20
27.6485215539
 30
0.0
 11
115.9784609913
 21
25.5847111134
 31
0.0
  0
LINE
  5
22E
330
1F
100
AcDbEntity
  8
0
  6
Continuous
 62
     7
370
    15
100
AcDbLine
 10
39.7808992211
 20
-13.5853027112
 30
0.0
 11
39.3359180175
 21
-11.8288682937
 31
0.0
  0
LINE
  5
22F
330
1F
100
AcDbEntity
  8
0
  6
Continuous
 62
     7
370
    15
100
AcDbLine
 10
27.3200919245
 20
13.3588185036
 30
0.0
 11
39.7808992211
 21
-13.5853027112
 31
0.0
  0
LINE
  5
230
330
1F
100
AcDbEntity
  8
0
  6
Continuous
 62
     7
370
    15
100
AcDbLine
 10
26.8751107209
 20
15.115252921
 30
0.0
 11
27.3200919245
 21
13.3588185036
 31
0.0
  0
LINE
  5
231
330
1F
100
AcDbEntity
  8
0
  6
Continuous
 62
     7
370
    15
100
AcDbLine
 10
76.5131230281
 20
1.7642469543
 30
0.0
 11
76.0681418245
 21
3.5206813718
 31
0.0
  0
LINE
  5
232
330
1F
100
AcDbEntity
  8
0
  6
Continuous
 62
     7
370
    15
100
AcDbLine
 10
39.7808992211
 20
-13.5853027112
 30
0.0
 11
76.5131230281
 21
1.7642469543
 31
0.0
  0
LINE
  5
233
330
1F
100
AcDbEntity
  8
0
  6
Continuous
 62
     7
370
    15
100
AcDbLine
 10
64.0930683233
 20
28.0806490358
 30
0.0
 11
72.2406689291
 21
10.4630153538
 31
0.0
  0
LINE
  5
234
330
1F
100
AcDbEntity
  8
0
  6
Continuous
 62
     7
370
    15
100
AcDbLine
 10
71.493374352
 20
13.4127442515
 30
0.0
 11
72.2406689291
 21
10.4630153538
 31
0.0
  0
LINE
  5
235
330
1F
100
AcDbEntity
  8
0
  6
Continuous
 62
     7
370
    15
100
AcDbLine
 10
88.5273876492
 20
16.8168487748
 30
0.0
 11
89.0502405635
 21
14.7530383343
 31
0.0
  0
LINE
  5
236
330
1F
100
AcDbEntity
  8
0
  6
Continuous
 62
     7
370
    15
100
AcDbLine
 10
90.4761345756
 20
15.0726453045
 30
0.0
 11
90.9989874898
 21
13.0088348639
 31
0.0
  0
LINE
  5
237
330
1F
100
AcDbEntity
  8
0
  6
Continuous
 62
     7
370
    15
100
AcDbLine
 10
90.5408831861
 20
17.6582421494
 30
0.0
 11
91.0637361003
 21
15.5944317089
 31
0.0
  0
LINE
  5
238
330
1F
100
AcDbEntity
  8
0
  6
Continuous
 62
     7
370
    15
100
AcDbLine
 10
72.2406689291
 20
10.4630153538
 30
0.0
 11
72.1914051995
 21
10.6019238277
 31
0.0
  0
LINE
  5
239
330
1F
100
AcDbEntity
  8
0
  6
Continuous
 62
     7
370
    15
100
AcDbLine
 10
113.3262432896
 20
31.3196264798
 30
0.0
 11
112.8033903754
 21
33.3834369203
 31
0.0
  0
LINE
  5
23A
330
1F
100
AcDbEntity
  8
0
  6
Continuous
 62
     7
370
    15
100
AcDbLine
 10
48.9441089716
 20
30.764635678
 30
0.0
 11
39.5327229952
 21
26.8427372223
 31
0.0
  0
LINE
  5
23B
330
1F
100
AcDbEntity
  8
0
  6
Continuous
 62
     7
370
    15
100
AcDbLine
 10
48.9441089716
 20
30.764635678
 30
0.0
 11
69.8004857136
 21
39.480034787
 31
0.0
  0
LINE
  5
23C
330
1F
100
AcDbEntity
  8
0
  6
Continuous
 62
     7
370
    15
100
AcDbLine
 10
69.8004857136
 20
39.480034787
 30
0.0
 11
79.802004784
 21
17.8536557129
 31
0.0
  0
LINE
  5
23D
330
1F
100
AcDbEntity
  8
0
  6
Continuous
 62
     7
370
    15
100
AcDbLine
 10
42.4702925677
 20
19.0449894441
 30
0.0
 11
64.0930683233
 21
28.0806490358
 31
0.0
  0
LINE
  5
23E
330
1F
100
AcDbEntity
  8
0
  6
Continuous
 62
     7
370
    15
100
AcDbLine
 10
1.3946489701
 20
4.4675552701
 30
0.0
 11
2.1733660765
 21
1.3937950396
 31
0.0
  0
LINE
  5
23F
330
1F
100
AcDbEntity
  8
0
  6
Continuous
 62
     7
370
    15
100
AcDbLine
 10
41.8865592791
 20
17.9890231053
 30
0.0
 11
41.1078421728
 21
21.0627833358
 31
0.0
  0
LINE
  5
240
330
1F
100
AcDbEntity
  8
0
  6
Continuous
 62
     7
370
    15
100
AcDbLine
 10
-1.6095566771
 20
10.963577493
 30
0.0
 11
-0.7195942699
 21
7.4507086581
 31
0.0
  0
LINE
  5
241
330
1F
100
AcDbEntity
  8
0
  6
Continuous
 62
     7
370
    15
100
AcDbLine
 10
1.9090856715
 20
1.7666892131
 30
0.0
 11
-0.7195942699
 21
7.4507086581
 31
0.0
  0
LINE
  5
242
330
1F
100
AcDbEntity
  8
0
  6
Continuous
 62
     7
370
    15
100
AcDbLine
 10
106.4596183721
 20
46.4695847253
 30
0.0
 11
113.1569395601
 21
31.9879039154
 31
0.0
  0
LINE
  5
243
330
1F
100
AcDbEntity
  8
0
  6
Continuous
 62
     7
370
    15
100
AcDbLine
 10
99.2409420259
 20
62.3962803794
 30
0.0
 11
99.1964353453
 21
62.5719576103
 31
0.0
  0
LINE
  5
244
330
1F
100
AcDbEntity
  8
0
  6
Continuous
 62
     7
370
    15
100
AcDbLine
 10
99.1964353453
 20
62.5719576103
 30
0.0
 11
100.9948862624
 21
58.6831502196
 31
0.0
  0
LINE
  5
245
330
1F
100
AcDbEntity
  8
0
  6
Continuous
 62
     7
370
    15
100
AcDbLine
 10
100.9948862624
 20
58.6831502196
 30
0.0
 11
100.327414457
 21
61.3178018458
 31
0.0
  0
LINE
  5
246
330
1F
100
AcDbEntity
  8
0
  6
Continuous
 62
     7
370
    15
100
AcDbLine
 10
69.5760440507
 20
40.3659532442
 30
0.0
 11
69.8004857136
 21
39.480034787
 31
0.0
  0
LINE
  5
247
330
1F
100
AcDbEntity
  8
0
  6
Continuous
 62
     7
370
    15
100
AcDbLine
 10
8.2574724089
 20
12.180002573
 30
0.0
 11
7.5915569904
 21
14.8085108126
 31
0.0
  0
LINE
  5
248
330
1F
100
AcDbEntity
  8
0
  6
Continuous
 62
     7
370
    15
100
AcDbLine
 10
31.3529748304
 20
13.5872809592
 30
0.0
 11
64.3860516343
 21
27.391042356
 31
0.0
  0
LINE
  5
249
330
1F
100
AcDbEntity
  8
0
  6
Continuous
 62
     7
370
    15
100
AcDbLine
 10
16.9676905627
 20
68.9872448102
 30
0.0
 11
17.9466447842
 21
66.8704428582
 31
0.0
  0
LINE
  5
24A
330
1F
100
AcDbEntity
  8
0
  6
Continuous
 62
     7
370
    15
100
AcDbLine
 10
16.7827969162
 20
69.7170589274
 30
0.0
 11
16.9676905627
 21
68.9872448102
 31
0.0
  0
LINE
  5
24B
330
1F
100
AcDbEntity
  8
0
  6
Continuous
 62
     7
370
    15
100
AcDbLine
 10
19.6764082774
 20
63.4601757729
 30
0.0
 11
16.7827969162
 21
69.7170589274
 31
0.0
  0
LINE
  5
24C
330
1F
100
AcDbEntity
  8
0
  6
Continuous
 62
     7
370
    15
100
AcDbLine
 10
25.2860957538
 20
51.3302956021
 30
0.0
 11
21.1785111011
 21
60.2121646615
 31
0.0
  0
LINE
  5
24D
330
1F
100
AcDbEntity
  8
0
  6
Continuous
 62
     7
370
    15
100
AcDbLine
 10
17.9466447842
 20
66.8704428582
 30
0.0
 11
18.540468244
 21
64.5264967449
 31
0.0
  0
LINE
  5
24E
330
1F
100
AcDbEntity
  8
0
  6
Continuous
 62
     7
370
    15
100
AcDbLine
 10
48.7196673088
 20
31.6505541351
 30
0.0
 11
48.9441089716
 21
30.764635678
 31
0.0
  0
LINE
  5
24F
330
1F
100
AcDbEntity
  8
0
  6
Continuous
 62
     7
370
    15
100
AcDbLine
 10
48.9329469908
 20
30.7599842743
 30
0.0
 11
34.6919202352
 21
61.6528471671
 31
0.0
  0
LINE
  5
250
330
1F
100
AcDbEntity
  8
0
  6
Continuous
 62
     7
370
    15
100
AcDbLine
 10
33.9283904691
 20
64.666659771
 30
0.0
 11
34.6919202352
 21
61.6528471671
 31
0.0
  0
LINE
  5
251
330
1F
100
AcDbEntity
  8
0
  6
Continuous
 62
     7
370
    15
100
AcDbLine
 10
25.0910952684
 20
57.6520059834
 30
0.0
 11
34.6919202352
 21
61.6528471671
 31
0.0
  0
LINE
  5
252
330
1F
100
AcDbEntity
  8
0
  6
Continuous
 62
     7
370
    15
100
AcDbLine
 10
27.566082814
 20
52.2830496418
 30
0.0
 11
25.2860957538
 21
51.3302956021
 31
0.0
  0
LINE
  5
253
330
1F
100
AcDbEntity
  8
0
  6
Continuous
 62
     7
370
    15
100
AcDbLine
 10
99.1495200841
 20
62.5979862563
 30
0.0
 11
99.1964353453
 21
62.5719576103
 31
0.0
  0
LINE
  5
254
330
1F
100
AcDbEntity
  8
0
  6
Continuous
 62
     7
370
    15
100
AcDbLine
 10
23.8026252256
 20
60.4470662733
 30
0.0
 11
33.9283904691
 21
64.666659771
 31
0.0
  0
LINE
  5
255
330
1F
100
AcDbEntity
  8
0
  6
Continuous
 62
     7
370
    15
100
AcDbLine
 10
21.1785111011
 20
60.2121646615
 30
0.0
 11
69.1519979522
 21
80.2591790464
 31
0.0
  0
LINE
  5
256
330
1F
100
AcDbEntity
  8
0
  6
Continuous
 62
     7
370
    15
100
AcDbLine
 10
69.4904950479
 20
79.5272435818
 30
0.0
 11
69.1519979522
 21
80.2591790464
 31
0.0
  0
LINE
  5
257
330
1F
100
AcDbEntity
  8
0
  6
Continuous
 62
     7
370
    15
100
AcDbLine
 10
69.4904950479
 20
79.5272435818
 30
0.0
 11
33.9283904691
 21
64.666659771
 31
0.0
  0
LINE
  5
258
330
1F
100
AcDbEntity
  8
0
  6
Continuous
 62
     7
370
    15
100
AcDbLine
 10
23.8026252256
 20
60.4470662733
 30
0.0
 11
27.566082814
 21
52.2830496418
 31
0.0
  0
LINE
  5
259
330
1F
100
AcDbEntity
  8
0
  6
Continuous
 62
     7
370
    15
100
AcDbLine
 10
67.6498951286
 20
83.5071901578
 30
0.0
 11
19.6764082774
 21
63.4601757729
 31
0.0
  0
LINE
  5
25A
330
1F
100
AcDbEntity
  8
0
  6
Continuous
 62
     7
370
    15
100
AcDbLine
 10
69.8127591767
 20
78.2551992738
 30
0.0
 11
69.4904950479
 21
79.5272435818
 31
0.0
  0
LINE
  5
25B
330
1F
100
AcDbEntity
  8
0
  6
Continuous
 62
     7
370
    15
100
AcDbLine
 10
69.8127591767
 20
78.2551992738
 30
0.0
 11
71.6529819102
 21
79.0241859377
 31
0.0
  0
LINE
  5
25C
330
1F
100
AcDbEntity
  8
0
  6
Continuous
 62
     7
370
    15
100
AcDbLine
 10
71.6529819102
 20
79.0241859377
 30
0.0
 11
71.8535706957
 21
78.2324198052
 31
0.0
  0
LINE
  5
25D
330
1F
100
AcDbEntity
  8
0
  6
Continuous
 62
     7
370
    15
100
AcDbLine
 10
28.8132111305
 20
72.2184073746
 30
0.0
 11
65.7352379889
 21
87.6472713604
 31
0.0
  0
LINE
  5
25E
330
1F
100
AcDbEntity
  8
0
  6
Continuous
 62
     7
370
    15
100
AcDbLine
 10
67.6498951286
 20
83.5071901578
 30
0.0
 11
65.7352379889
 21
87.6472713604
 31
0.0
  0
LINE
  5
25F
330
1F
100
AcDbEntity
  8
0
  6
Continuous
 62
     7
370
    15
100
AcDbLine
 10
17.6414623365
 20
70.993885064
 30
0.0
 11
28.4991313711
 21
72.1380773479
 31
0.0
  0
LINE
  5
260
330
1F
100
AcDbEntity
  8
0
  6
Continuous
 62
     7
370
    15
100
AcDbLine
 10
16.9676905627
 20
68.9872448102
 30
0.0
 11
16.9184268331
 21
69.1261532841
 31
0.0
  0
LINE
  5
261
330
1F
100
AcDbEntity
  8
0
  6
Continuous
 62
     7
370
    15
100
AcDbLine
 10
68.3790136472
 20
81.5531505643
 30
0.0
 11
70.0739774374
 21
82.261436864
 31
0.0
  0
LINE
  5
262
330
1F
100
AcDbEntity
  8
0
  6
Continuous
 62
     7
370
    15
100
AcDbLine
 10
67.3962217117
 20
84.0557105811
 30
0.0
 11
68.928618869
 21
84.696064032
 31
0.0
  0
LINE
  5
263
330
1F
100
AcDbEntity
  8
0
  6
Continuous
 62
     7
370
    15
100
AcDbLine
 10
70.0739774374
 20
82.261436864
 30
0.0
 11
68.928618869
 21
84.696064032
 31
0.0
  0
LINE
  5
264
330
1F
100
AcDbEntity
  8
0
  6
Continuous
 62
     7
370
    15
100
AcDbLine
 10
58.9828381046
 20
86.7870499753
 30
0.0
 11
59.743035467
 21
85.1432680444
 31
0.0
  0
LINE
  5
265
330
1F
100
AcDbEntity
  8
0
  6
Continuous
 62
     7
370
    15
100
AcDbLine
 10
59.5283568765
 20
87.9798628995
 30
0.0
 11
63.5345812892
 21
89.6362551168
 31
0.0
  0
LINE
  5
266
330
1F
100
AcDbEntity
  8
0
  6
Continuous
 62
     7
370
    15
100
AcDbLine
 10
64.8311514729
 20
89.2050624852
 30
0.0
 11
65.5813252008
 21
87.5829547539
 31
0.0
  0
LINE
  5
267
330
1F
100
AcDbEntity
  8
0
  6
Continuous
 62
     7
370
    15
100
AcDbLine
 10
59.2112536384
 20
85.8854458137
 30
0.0
 11
59.5850239763
 21
85.0772386846
 31
0.0
  0
LINE
  5
268
330
1F
100
AcDbEntity
  8
0
  6
Continuous
 62
     7
370
    15
100
AcDbLine
 10
58.9828381046
 20
86.7870499753
 30
0.0
 11
59.2112536384
 21
85.8854458137
 31
0.0
  0
LINE
  5
269
330
1F
100
AcDbEntity
  8
0
  6
Continuous
 62
     7
370
    15
100
AcDbLine
 10
68.928618869
 20
84.696064032
 30
0.0
 11
68.020441926
 21
86.6598236068
 31
0.0
  0
LINE
  5
26A
330
1F
100
AcDbEntity
  8
0
  6
Continuous
 62
     7
370
    15
100
AcDbLine
 10
66.4880447686
 20
86.0194701559
 30
0.0
 11
68.020441926
 21
86.6598236068
 31
0.0
  0
LINE
  5
26B
330
1F
100
AcDbEntity
  8
0
  6
Continuous
 62
     7
370
    15
100
AcDbLine
 10
59.2112536384
 20
85.8854458137
 30
0.0
 11
59.1619899088
 21
86.0243542876
 31
0.0
  0
LINE
  5
26C
330
1F
100
AcDbEntity
  8
0
  6
Continuous
 62
     7
370
    15
100
AcDbLine
 10
-50.7636998406
 20
-55.2582874759
 30
0.0
 11
-50.0962280352
 21
-57.8929391021
 31
0.0
  0
LINE
  5
26D
330
1F
100
AcDbEntity
  8
0
  6
Continuous
 62
     7
370
    15
100
AcDbLine
 10
-40.1747565806
 20
-121.3642055067
 30
0.0
 11
-39.5072847752
 21
-123.9988571329
 31
0.0
  0
LINE
  5
26E
330
1F
100
AcDbEntity
  8
0
  6
Continuous
 62
     7
370
    15
100
AcDbLine
 10
-107.8475549569
 20
-59.4520531687
 30
0.0
 11
-107.8416814407
 21
-59.512463927
 31
0.0
  0
LINE
  5
26F
330
1F
100
AcDbEntity
  8
0
  6
Continuous
 62
     7
370
    15
100
AcDbLine
 10
-98.8725806065
 20
-145.8926732051
 30
0.0
 11
-98.2051088011
 21
-148.5273248313
 31
0.0
  0
LINE
  5
270
330
1F
100
AcDbEntity
  8
0
  6
Continuous
 62
     7
370
    15
100
AcDbLine
 10
-100.7803002294
 20
-139.5440701135
 30
0.0
 11
-101.3746662199
 21
-137.1474867571
 31
0.0
  0
LINE
  5
271
330
1F
100
AcDbEntity
  8
0
  6
Continuous
 62
     7
370
    15
100
AcDbLine
 10
-98.8725806065
 20
-145.8926732051
 30
0.0
 11
-40.1747565806
 21
-121.3642055067
 31
0.0
  0
LINE
  5
272
330
1F
100
AcDbEntity
  8
0
  6
Continuous
 62
     7
370
    15
100
AcDbLine
 10
-41.7281960868
 20
-120.5588303041
 30
0.0
 11
-98.3198606522
 21
-144.2071825101
 31
0.0
  0
LINE
  5
273
330
1F
100
AcDbEntity
  8
0
  6
Continuous
 62
     7
370
    15
100
AcDbLine
 10
-47.5675932167
 20
-6.2918720684
 30
0.0
 11
-44.1834040599
 21
-13.6095362201
 31
0.0
  0
LINE
  5
274
330
1F
100
AcDbEntity
  8
0
  6
Continuous
 62
     7
370
    15
100
AcDbLine
 10
-47.3705807621
 20
-6.2093166664
 30
0.0
 11
-47.5675932167
 21
-6.2918720684
 31
0.0
  0
LINE
  5
275
330
1F
100
AcDbEntity
  8
0
  6
Continuous
 62
     7
370
    15
100
AcDbLine
 10
-56.0499515007
 20
12.497940347
 30
0.0
 11
-47.3705807621
 21
-6.2093166664
 31
0.0
  0
LINE
  5
276
330
1F
100
AcDbEntity
  8
0
  6
Continuous
 62
     7
370
    15
100
AcDbLine
 10
-53.7750270471
 20
13.4485788401
 30
0.0
 11
-56.0499515007
 21
12.497940347
 31
0.0
  0
LINE
  5
277
330
1F
100
AcDbEntity
  8
0
  6
Continuous
 62
     7
370
    15
100
AcDbLine
 10
-44.3634011522
 20
-6.9022686536
 30
0.0
 11
-53.7750270471
 21
13.4485788401
 31
0.0
  0
LINE
  5
278
330
1F
100
AcDbEntity
  8
0
  6
Continuous
 62
     7
370
    15
100
AcDbLine
 10
-15.3798930994
 20
5.209271303
 30
0.0
 11
-44.3634011522
 21
-6.9022686536
 31
0.0
  0
LINE
  5
279
330
1F
100
AcDbEntity
  8
0
  6
Continuous
 62
     7
370
    15
100
AcDbLine
 10
-14.2533159817
 20
2.7732629694
 30
0.0
 11
-15.3798930994
 21
5.209271303
 31
0.0
  0
LINE
  5
27A
330
1F
100
AcDbEntity
  8
0
  6
Continuous
 62
     7
370
    15
100
AcDbLine
 10
-14.2533159817
 20
2.7732629694
 30
0.0
 11
-8.7327991383
 21
5.0801597125
 31
0.0
  0
LINE
  5
27B
330
1F
100
AcDbEntity
  8
0
  6
Continuous
 62
     7
370
    15
100
AcDbLine
 10
-8.7327991383
 20
5.0801597125
 30
0.0
 11
-9.859376256
 21
7.5161680461
 31
0.0
  0
LINE
  5
27C
330
1F
100
AcDbEntity
  8
0
  6
Continuous
 62
     7
370
    15
100
AcDbLine
 10
-6.1787794318
 20
9.0542046226
 30
0.0
 11
-9.859376256
 21
7.5161680461
 31
0.0
  0
LINE
  5
27D
330
1F
100
AcDbEntity
  8
0
  6
Continuous
 62
     7
370
    15
100
AcDbLine
 10
-3.1745737846
 20
2.5581823997
 30
0.0
 11
-6.1787794318
 21
9.0542046226
 31
0.0
  0
LINE
  5
27E
330
1F
100
AcDbEntity
  8
0
  6
Continuous
 62
     7
370
    15
100
AcDbLine
 10
-28.6550355353
 20
-8.0895152512
 30
0.0
 11
-3.1745737846
 21
2.5581823997
 31
0.0
  0
LINE
  5
27F
330
1F
100
AcDbEntity
  8
0
  6
Continuous
 62
     7
370
    15
100
AcDbLine
 10
-28.6550355353
 20
-8.0895152512
 30
0.0
 11
-16.1942282388
 21
-35.0336364659
 31
0.0
  0
LINE
  5
280
330
1F
100
AcDbEntity
  8
0
  6
Continuous
 62
     7
370
    15
100
AcDbLine
 10
-16.1942282388
 20
-35.0336364659
 30
0.0
 11
-52.9264520459
 21
-50.3831861315
 31
0.0
  0
LINE
  5
281
330
1F
100
AcDbEntity
  8
0
  6
Continuous
 62
     7
370
    15
100
AcDbLine
 10
-52.9264520459
 20
-50.3831861315
 30
0.0
 11
-51.4540621201
 21
-53.5669487635
 31
0.0
  0
LINE
  5
282
330
1F
100
AcDbEntity
  8
0
  6
Continuous
 62
     7
370
    15
100
AcDbLine
 10
-107.1028279565
 20
-58.2763258187
 30
0.0
 11
-121.6576482206
 21
-26.8043006024
 31
0.0
  0
LINE
  5
283
330
1F
100
AcDbEntity
  8
0
  6
Continuous
 62
     7
370
    15
100
AcDbLine
 10
-119.2523965678
 20
-25.7992013768
 30
0.0
 11
-121.6576482206
 21
-26.8043006024
 31
0.0
  0
LINE
  5
284
330
1F
100
AcDbEntity
  8
0
  6
Continuous
 62
     7
370
    15
100
AcDbLine
 10
-114.1285826312
 20
-28.29841621
 30
0.0
 11
-119.2523965678
 21
-25.7992013768
 31
0.0
  0
LINE
  5
285
330
1F
100
AcDbEntity
  8
0
  6
Continuous
 62
     7
370
    15
100
AcDbLine
 10
-114.1285826312
 20
-28.29841621
 30
0.0
 11
-101.281531018
 21
-56.0777171558
 31
0.0
  0
LINE
  5
286
330
1F
100
AcDbEntity
  8
0
  6
Continuous
 62
     7
370
    15
100
AcDbLine
 10
-100.9104553232
 20
-55.9226531761
 30
0.0
 11
-101.281531018
 21
-56.0777171558
 31
0.0
  0
LINE
  5
287
330
1F
100
AcDbEntity
  8
0
  6
Continuous
 62
     7
370
    15
100
AcDbLine
 10
-98.2582376215
 20
-61.6575685425
 30
0.0
 11
-100.9104553232
 21
-55.9226531761
 31
0.0
  0
LINE
  5
288
330
1F
100
AcDbEntity
  8
0
  6
Continuous
 62
     7
370
    15
100
AcDbLine
 10
-98.4445576791
 20
-116.2982793291
 30
0.0
 11
-97.4841475976
 21
-104.9166123879
 31
0.0
  0
LINE
  5
289
330
1F
100
AcDbEntity
  8
0
  6
Continuous
 62
     7
370
    15
100
AcDbLine
 10
-96.1367324084
 20
-130.4233211244
 30
0.0
 11
-98.4445576791
 21
-116.2982793291
 31
0.0
  0
LINE
  5
28A
330
1F
100
AcDbEntity
  8
0
  6
Continuous
 62
     7
370
    15
100
AcDbLine
 10
-93.0955594654
 20
-129.1524850493
 30
0.0
 11
-96.1367324084
 21
-130.4233211244
 31
0.0
  0
LINE
  5
28B
330
1F
100
AcDbEntity
  8
0
  6
Continuous
 62
     7
370
    15
100
AcDbLine
 10
-54.3004991769
 20
-117.092169147
 30
0.0
 11
-92.1545940694
 21
-132.9105228804
 31
0.0
  0
LINE
  5
28C
330
1F
100
AcDbEntity
  8
0
  6
Continuous
 62
     7
370
    15
100
AcDbLine
 10
-61.2104113493
 20
-71.5821833768
 30
0.0
 11
-64.8686378652
 21
-75.1382867799
 31
0.0
  0
LINE
  5
28D
330
1F
100
AcDbEntity
  8
0
  6
Continuous
 62
     7
370
    15
100
AcDbLine
 10
-58.202762379
 20
-62.7147587408
 30
0.0
 11
-61.2104113493
 21
-71.5821833768
 31
0.0
  0
LINE
  5
28E
330
1F
100
AcDbEntity
  8
0
  6
Continuous
 62
     7
370
    15
100
AcDbLine
 10
-58.4128056739
 20
-54.4085060361
 30
0.0
 11
-58.202762379
 21
-62.7147587408
 31
0.0
  0
LINE
  5
28F
330
1F
100
AcDbEntity
  8
0
  6
Continuous
 62
     7
370
    15
100
AcDbLine
 10
-60.7127683003
 20
-45.5471724689
 30
0.0
 11
-58.4128056739
 21
-54.4085060361
 31
0.0
  0
LINE
  5
290
330
1F
100
AcDbEntity
  8
0
  6
Continuous
 62
     7
370
    15
100
AcDbLine
 10
-71.6563578446
 20
-50.120246294
 30
0.0
 11
-60.7127683003
 21
-45.5471724689
 31
0.0
  0
LINE
  5
291
330
1F
100
AcDbEntity
  8
0
  6
Continuous
 62
     7
370
    15
100
AcDbLine
 10
-71.6563578446
 20
-50.120246294
 30
0.0
 11
-71.6218837873
 21
-52.6643802731
 31
0.0
  0
LINE
  5
292
330
1F
100
AcDbEntity
  8
0
  6
Continuous
 62
     7
370
    15
100
AcDbLine
 10
-71.6218837873
 20
-52.6643802731
 30
0.0
 11
-73.6698533815
 21
-50.9616396686
 31
0.0
  0
LINE
  5
293
330
1F
100
AcDbEntity
  8
0
  6
Continuous
 62
     7
370
    15
100
AcDbLine
 10
-73.6698533815
 20
-50.9616396686
 30
0.0
 11
-75.4223778352
 21
-47.172139503
 31
0.0
  0
LINE
  5
294
330
1F
100
AcDbEntity
  8
0
  6
Continuous
 62
     7
370
    15
100
AcDbLine
 10
-75.4223778352
 20
-47.172139503
 30
0.0
 11
-67.0154201541
 21
-43.6590656652
 31
0.0
  0
LINE
  5
295
330
1F
100
AcDbEntity
  8
0
  6
Continuous
 62
     7
370
    15
100
AcDbLine
 10
-67.0778588918
 20
-43.5240537935
 30
0.0
 11
-67.0154201541
 21
-43.6590656652
 31
0.0
  0
LINE
  5
296
330
1F
100
AcDbEntity
  8
0
  6
Continuous
 62
     7
370
    15
100
AcDbLine
 10
-58.7968565911
 20
-40.0636138058
 30
0.0
 11
-67.0778588918
 21
-43.5240537935
 31
0.0
  0
LINE
  5
297
330
1F
100
AcDbEntity
  8
0
  6
Continuous
 62
     7
370
    15
100
AcDbLine
 10
-57.5012195184
 20
-40.4911232517
 30
0.0
 11
-54.1615371856
 21
-47.7125498778
 31
0.0
  0
LINE
  5
298
330
1F
100
AcDbEntity
  8
0
  6
Continuous
 62
     7
370
    15
100
AcDbLine
 10
-54.1615371856
 20
-47.7125498778
 30
0.0
 11
-20.5897656234
 21
-33.6836803582
 31
0.0
  0
LINE
  5
299
330
1F
100
AcDbEntity
  8
0
  6
Continuous
 62
     7
370
    15
100
AcDbLine
 10
-20.5897656234
 20
-33.6836803582
 30
0.0
 11
-31.8154877802
 21
-9.4101953971
 31
0.0
  0
LINE
  5
29A
330
1F
100
AcDbEntity
  8
0
  6
Continuous
 62
     7
370
    15
100
AcDbLine
 10
-42.8877669872
 20
-14.037045666
 30
0.0
 11
-31.8154877802
 21
-9.4101953971
 31
0.0
  0
LINE
  5
29B
330
1F
100
AcDbEntity
  8
0
  6
Continuous
 62
     7
370
    15
100
AcDbLine
 10
-39.5072847752
 20
-123.9988571329
 30
0.0
 11
-98.2051088011
 21
-148.5273248313
 31
0.0
  0
LINE
  5
29C
330
1F
100
AcDbEntity
  8
0
  6
Continuous
 62
     7
370
    15
100
AcDbLine
 10
-92.5727065511
 20
-131.2162954898
 30
0.0
 11
-93.0955594654
 21
-129.1524850493
 31
0.0
  0
LINE
  5
29D
330
1F
100
AcDbEntity
  8
0
  6
Continuous
 62
     7
370
    15
100
AcDbLine
 10
-50.0962280352
 20
-57.8929391021
 30
0.0
 11
-50.1103857638
 21
-57.9993061477
 31
0.0
  0
LINE
  5
29E
330
1F
100
AcDbEntity
  8
0
  6
Continuous
 62
     7
370
    15
100
AcDbLine
 10
-97.9217047648
 20
-118.3620897696
 30
0.0
 11
-98.4445576791
 21
-116.2982793291
 31
0.0
  0
LINE
  5
29F
330
1F
100
AcDbEntity
  8
0
  6
Continuous
 62
     7
370
    15
100
AcDbLine
 10
-95.9629415104
 20
-130.3506979139
 30
0.0
 11
-97.9217047648
 21
-118.3620897696
 31
0.0
  0
LINE
  5
2A0
330
1F
100
AcDbEntity
  8
0
  6
Continuous
 62
     7
370
    15
100
AcDbLine
 10
-92.1490711913
 20
-132.9082149969
 30
0.0
 11
-92.5727065511
 21
-131.2162954898
 31
0.0
  0
LINE
  5
2A1
330
1F
100
AcDbEntity
  8
0
  6
Continuous
 62
     7
370
    15
100
AcDbLine
 10
-97.9217047648
 20
-118.3620897696
 30
0.0
 11
-96.9612946881
 21
-106.980422789
 31
0.0
  0
LINE
  5
2A2
330
1F
100
AcDbEntity
  8
0
  6
Continuous
 62
     7
370
    15
100
AcDbLine
 10
-96.9612946881
 20
-106.980422789
 30
0.0
 11
-97.7353847073
 21
-63.721378983
 31
0.0
  0
LINE
  5
2A3
330
1F
100
AcDbEntity
  8
0
  6
Continuous
 62
     7
370
    15
100
AcDbLine
 10
-114.4720710432
 20
-28.130874737
 30
0.0
 11
-115.3551298982
 21
-26.2590084412
 31
0.0
  0
LINE
  5
2A4
330
1F
100
AcDbEntity
  8
0
  6
Continuous
 62
     7
370
    15
100
AcDbLine
 10
-115.3551298982
 20
-26.2590084412
 30
0.0
 11
-108.712314669
 21
2.7780982847
 31
0.0
  0
LINE
  5
2A5
330
1F
100
AcDbEntity
  8
0
  6
Continuous
 62
     7
370
    15
100
AcDbLine
 10
-108.712314669
 20
2.7780982847
 30
0.0
 11
-71.3099873567
 21
18.4076687594
 31
0.0
  0
LINE
  5
2A6
330
1F
100
AcDbEntity
  8
0
  6
Continuous
 62
     7
370
    15
100
AcDbLine
 10
-71.3099873567
 20
18.4076687594
 30
0.0
 11
-56.9644004129
 21
-12.5123817891
 31
0.0
  0
LINE
  5
2A7
330
1F
100
AcDbEntity
  8
0
  6
Continuous
 62
     7
370
    15
100
AcDbLine
 10
-56.9644004129
 20
-12.5123817891
 30
0.0
 11
-77.8207771548
 21
-21.2277808982
 31
0.0
  0
LINE
  5
2A8
330
1F
100
AcDbEntity
  8
0
  6
Continuous
 62
     7
370
    15
100
AcDbLine
 10
-77.8207771548
 20
-21.2277808982
 30
0.0
 11
-67.3771152061
 21
-43.8102096905
 31
0.0
  0
LINE
  5
2A9
330
1F
100
AcDbEntity
  8
0
  6
Continuous
 62
     7
370
    15
100
AcDbLine
 10
-74.8995249209
 20
-49.2359499436
 30
0.0
 11
-73.1470004672
 21
-53.0254501091
 31
0.0
  0
LINE
  5
2AA
330
1F
100
AcDbEntity
  8
0
  6
Continuous
 62
     7
370
    15
100
AcDbLine
 10
-73.1470004672
 20
-53.0254501091
 30
0.0
 11
-71.099030873
 21
-54.7281907136
 31
0.0
  0
LINE
  5
2AB
330
1F
100
AcDbEntity
  8
0
  6
Continuous
 62
     7
370
    15
100
AcDbLine
 10
-71.099030873
 20
-54.7281907136
 30
0.0
 11
-71.1335049303
 21
-52.1840567345
 31
0.0
  0
LINE
  5
2AC
330
1F
100
AcDbEntity
  8
0
  6
Continuous
 62
     7
370
    15
100
AcDbLine
 10
-71.1335049303
 20
-52.1840567345
 30
0.0
 11
-60.189915386
 21
-47.6109829094
 31
0.0
  0
LINE
  5
2AD
330
1F
100
AcDbEntity
  8
0
  6
Continuous
 62
     7
370
    15
100
AcDbLine
 10
-60.189915386
 20
-47.6109829094
 30
0.0
 11
-58.4114229174
 21
-54.4631877367
 31
0.0
  0
LINE
  5
2AE
330
1F
100
AcDbEntity
  8
0
  6
Continuous
 62
     7
370
    15
100
AcDbLine
 10
-64.5618371576
 20
-84.9852876898
 30
0.0
 11
-64.8460167289
 21
-95.2227376718
 31
0.0
  0
LINE
  5
2AF
330
1F
100
AcDbEntity
  8
0
  6
Continuous
 62
     7
370
    15
100
AcDbLine
 10
-64.8460167289
 20
-95.2227376718
 30
0.0
 11
-59.5440529753
 21
-106.6872239328
 31
0.0
  0
LINE
  5
2B0
330
1F
100
AcDbEntity
  8
0
  6
Continuous
 62
     7
370
    15
100
AcDbLine
 10
-96.9612946881
 20
-106.980422789
 30
0.0
 11
-97.4841475976
 21
-104.9166123879
 31
0.0
  0
LINE
  5
2B1
330
1F
100
AcDbEntity
  8
0
  6
Continuous
 62
     7
370
    15
100
AcDbLine
 10
-98.2582376215
 20
-61.6575685425
 30
0.0
 11
-97.7353847073
 21
-63.721378983
 31
0.0
  0
LINE
  5
2B2
330
1F
100
AcDbEntity
  8
0
  6
Continuous
 62
     7
370
    15
100
AcDbLine
 10
-64.2408978165
 20
-88.0976064615
 30
0.0
 11
-64.4617480992
 21
-96.0536453563
 31
0.0
  0
LINE
  5
2B3
330
1F
100
AcDbEntity
  8
0
  6
Continuous
 62
     7
370
    15
100
AcDbLine
 10
-60.189915386
 20
-47.6109829094
 30
0.0
 11
-60.7127683003
 21
-45.5471724689
 31
0.0
  0
LINE
  5
2B4
330
1F
100
AcDbEntity
  8
0
  6
Continuous
 62
     7
370
    15
100
AcDbLine
 10
-15.7492470352
 20
-36.7900708834
 30
0.0
 11
-16.1942282388
 21
-35.0336364659
 31
0.0
  0
LINE
  5
2B5
330
1F
100
AcDbEntity
  8
0
  6
Continuous
 62
     7
370
    15
100
AcDbLine
 10
-15.7492470352
 20
-36.7900708834
 30
0.0
 11
-52.1736452661
 21
-52.0109873359
 31
0.0
  0
LINE
  5
2B6
330
1F
100
AcDbEntity
  8
0
  6
Continuous
 62
     7
370
    15
100
AcDbLine
 10
-73.6698533815
 20
-50.9616396686
 30
0.0
 11
-73.1470004672
 21
-53.0254501091
 31
0.0
  0
LINE
  5
2B7
330
1F
100
AcDbEntity
  8
0
  6
Continuous
 62
     7
370
    15
100
AcDbLine
 10
-71.6218837873
 20
-52.6643802731
 30
0.0
 11
-71.099030873
 21
-54.7281907136
 31
0.0
  0
LINE
  5
2B8
330
1F
100
AcDbEntity
  8
0
  6
Continuous
 62
     7
370
    15
100
AcDbLine
 10
-71.6563578446
 20
-50.120246294
 30
0.0
 11
-71.1335049303
 21
-52.1840567345
 31
0.0
  0
LINE
  5
2B9
330
1F
100
AcDbEntity
  8
0
  6
Continuous
 62
     7
370
    15
100
AcDbLine
 10
-75.4223778352
 20
-47.172139503
 30
0.0
 11
-74.8995249209
 21
-49.2359499436
 31
0.0
  0
LINE
  5
2BA
330
1F
100
AcDbEntity
  8
0
  6
Continuous
 62
     7
370
    15
100
AcDbLine
 10
-122.0909885805
 20
-28.4399053166
 30
0.0
 11
-107.9116940224
 21
-59.0999277551
 31
0.0
  0
LINE
  5
2BB
330
1F
100
AcDbEntity
  8
0
  6
Continuous
 62
     7
370
    15
100
AcDbLine
 10
-121.4235167751
 20
-31.0745569428
 30
0.0
 11
-122.0909885805
 21
-28.4399053166
 31
0.0
  0
LINE
  5
2BC
330
1F
100
AcDbEntity
  8
0
  6
Continuous
 62
     7
370
    15
100
AcDbLine
 10
-31.3705065766
 20
-11.1666298146
 30
0.0
 11
-31.8154877802
 21
-9.4101953971
 31
0.0
  0
LINE
  5
2BD
330
1F
100
AcDbEntity
  8
0
  6
Continuous
 62
     7
370
    15
100
AcDbLine
 10
-20.8975911996
 20
-33.8123135712
 30
0.0
 11
-31.3705065766
 21
-11.1666298146
 31
0.0
  0
LINE
  5
2BE
330
1F
100
AcDbEntity
  8
0
  6
Continuous
 62
     7
370
    15
100
AcDbLine
 10
-67.0778588918
 20
-43.5240537935
 30
0.0
 11
-67.0409515932
 21
-43.6697346651
 31
0.0
  0
LINE
  5
2BF
330
1F
100
AcDbEntity
  8
0
  6
Continuous
 62
     7
370
    15
100
AcDbLine
 10
-115.3551298982
 20
-26.2590084412
 30
0.0
 11
-115.0309639614
 21
-27.5385595857
 31
0.0
  0
LINE
  5
2C0
330
1F
100
AcDbEntity
  8
0
  6
Continuous
 62
     7
370
    15
100
AcDbLine
 10
-121.4235167751
 20
-31.0745569428
 30
0.0
 11
-121.4544684513
 21
-31.0079299959
 31
0.0
  0
LINE
  5
2C1
330
1F
100
AcDbEntity
  8
0
  6
Continuous
 62
     7
370
    15
100
AcDbLine
 10
-43.2787497915
 20
-16.7875588758
 30
0.0
 11
-64.9015255471
 21
-25.8232184674
 31
0.0
  0
LINE
  5
2C2
330
1F
100
AcDbEntity
  8
0
  6
Continuous
 62
     7
370
    15
100
AcDbLine
 10
-56.73995875
 20
-13.3983002462
 30
0.0
 11
-77.4410730143
 21
-22.0488187446
 31
0.0
  0
LINE
  5
2C3
330
1F
100
AcDbEntity
  8
0
  6
Continuous
 62
     7
370
    15
100
AcDbLine
 10
-56.73995875
 20
-13.3983002462
 30
0.0
 11
-46.8202986396
 21
-9.2416009661
 31
0.0
  0
LINE
  5
2C4
330
1F
100
AcDbEntity
  8
0
  6
Continuous
 62
     7
370
    15
100
AcDbLine
 10
-46.8202986396
 20
-9.2416009661
 30
0.0
 11
-43.4361094828
 21
-16.5592651178
 31
0.0
  0
LINE
  5
2C5
330
1F
100
AcDbEntity
  8
0
  6
Continuous
 62
     7
370
    15
100
AcDbLine
 10
-64.9015255471
 20
-25.8232184674
 30
0.0
 11
-58.3557364076
 21
-39.9772400988
 31
0.0
  0
LINE
  5
2C6
330
1F
100
AcDbEntity
  8
0
  6
Continuous
 62
     7
370
    15
100
AcDbLine
 10
-44.1834040599
 20
-13.6095362201
 30
0.0
 11
-43.4361094828
 21
-16.5592651178
 31
0.0
  0
LINE
  5
2C7
330
1F
100
AcDbEntity
  8
0
  6
Continuous
 62
     7
370
    15
100
AcDbLine
 10
-42.1090498809
 20
-17.1108058966
 30
0.0
 11
-42.8877669872
 21
-14.037045666
 31
0.0
  0
LINE
  5
2C8
330
1F
100
AcDbEntity
  8
0
  6
Continuous
 62
     7
370
    15
100
AcDbLine
 10
-3.1745737846
 20
2.5581823997
 30
0.0
 11
-2.3958566783
 21
-0.5155778308
 31
0.0
  0
LINE
  5
2C9
330
1F
100
AcDbEntity
  8
0
  6
Continuous
 62
     7
370
    15
100
AcDbLine
 10
-46.8202986396
 20
-9.2416009661
 30
0.0
 11
-47.5675932167
 21
-6.2918720684
 31
0.0
  0
LINE
  5
2CA
330
1F
100
AcDbEntity
  8
0
  6
Continuous
 62
     7
370
    15
100
AcDbLine
 10
-30.8059014918
 20
-12.3874807179
 30
0.0
 11
-64.5868050075
 21
-26.5037416604
 31
0.0
  0
LINE
  5
2CB
330
1F
100
AcDbEntity
  8
0
  6
Continuous
 62
     7
370
    15
100
AcDbLine
 10
-47.087118929
 20
-8.1884051551
 30
0.0
 11
-60.9526379398
 21
21.6969212782
 31
0.0
  0
LINE
  5
2CC
330
1F
100
AcDbEntity
  8
0
  6
Continuous
 62
     7
370
    15
100
AcDbLine
 10
-60.9526379398
 20
21.6969212782
 30
0.0
 11
-61.7161677059
 21
24.7107338821
 31
0.0
  0
LINE
  5
2CD
330
1F
100
AcDbEntity
  8
0
  6
Continuous
 62
     7
370
    15
100
AcDbLine
 10
-61.7161677059
 20
24.7107338821
 30
0.0
 11
-57.9323575019
 21
16.5552221396
 31
0.0
  0
LINE
  5
2CE
330
1F
100
AcDbEntity
  8
0
  6
Continuous
 62
     7
370
    15
100
AcDbLine
 10
-9.1934608375
 20
4.8876598065
 30
0.0
 11
-9.859376256
 21
7.5161680461
 31
0.0
  0
LINE
  5
2CF
330
1F
100
AcDbEntity
  8
0
  6
Continuous
 62
     7
370
    15
100
AcDbLine
 10
-56.9644004129
 20
-12.5123817891
 30
0.0
 11
-56.73995875
 21
-13.3983002462
 31
0.0
  0
LINE
  5
2D0
330
1F
100
AcDbEntity
  8
0
  6
Continuous
 62
     7
370
    15
100
AcDbLine
 10
-108.9127446354
 20
2.9533595002
 30
0.0
 11
-108.7518233281
 21
2.6053978388
 31
0.0
  0
LINE
  5
2D1
330
1F
100
AcDbEntity
  8
0
  6
Continuous
 62
     7
370
    15
100
AcDbLine
 10
-115.2105110071
 20
-26.8298496269
 30
0.0
 11
-115.2595617429
 21
-27.0442604455
 31
0.0
  0
LINE
  5
2D2
330
1F
100
AcDbEntity
  8
0
  6
Continuous
 62
     7
370
    15
100
AcDbLine
 10
-115.2595617429
 20
-27.0442604455
 30
0.0
 11
-114.8400422378
 21
-27.9513914304
 31
0.0
  0
LINE
  5
2D3
330
1F
100
AcDbEntity
  8
0
  6
Continuous
 62
     7
370
    15
100
AcDbLine
 10
-60.9526379398
 20
21.6969212782
 30
0.0
 11
-70.9017944489
 21
17.5278619315
 31
0.0
  0
LINE
  5
2D4
330
1F
100
AcDbEntity
  8
0
  6
Continuous
 62
     7
370
    15
100
AcDbLine
 10
-107.3949448497
 20
5.6108953891
 30
0.0
 11
-107.7334419454
 21
6.3428308538
 31
0.0
  0
LINE
  5
2D5
330
1F
100
AcDbEntity
  8
0
  6
Continuous
 62
     7
370
    15
100
AcDbLine
 10
-59.7599550943
 20
26.3898452386
 30
0.0
 11
-107.7334419454
 21
6.3428308538
 31
0.0
  0
LINE
  5
2D6
330
1F
100
AcDbEntity
  8
0
  6
Continuous
 62
     7
370
    15
100
AcDbLine
 10
-57.9323575019
 20
16.5552221396
 30
0.0
 11
-55.6523704416
 21
17.5079761793
 31
0.0
  0
LINE
  5
2D7
330
1F
100
AcDbEntity
  8
0
  6
Continuous
 62
     7
370
    15
100
AcDbLine
 10
-61.7161677059
 20
24.7107338821
 30
0.0
 11
-71.8328402709
 21
20.4714791999
 31
0.0
  0
LINE
  5
2D8
330
1F
100
AcDbEntity
  8
0
  6
Continuous
 62
     7
370
    15
100
AcDbLine
 10
-107.3949448497
 20
5.6108953891
 30
0.0
 11
-71.8328402709
 21
20.4714791999
 31
0.0
  0
LINE
  5
2D9
330
1F
100
AcDbEntity
  8
0
  6
Continuous
 62
     7
370
    15
100
AcDbLine
 10
-55.6523704416
 20
17.5079761793
 30
0.0
 11
-59.7599550943
 21
26.3898452386
 31
0.0
  0
LINE
  5
2DA
330
1F
100
AcDbEntity
  8
0
  6
Continuous
 62
     7
370
    15
100
AcDbLine
 10
-108.9129034545
 20
3.5698644172
 30
0.0
 11
-108.712314669
 21
2.7780982847
 31
0.0
  0
LINE
  5
2DB
330
1F
100
AcDbEntity
  8
0
  6
Continuous
 62
     7
370
    15
100
AcDbLine
 10
-107.072680721
 20
4.3388510812
 30
0.0
 11
-108.9129034545
 21
3.5698644172
 31
0.0
  0
LINE
  5
2DC
330
1F
100
AcDbEntity
  8
0
  6
Continuous
 62
     7
370
    15
100
AcDbLine
 10
-107.072680721
 20
4.3388510812
 30
0.0
 11
-107.3949448497
 21
5.6108953891
 31
0.0
  0
LINE
  5
2DD
330
1F
100
AcDbEntity
  8
0
  6
Continuous
 62
     7
370
    15
100
AcDbLine
 10
-71.8328402709
 20
20.4714791999
 30
0.0
 11
-71.3099873567
 21
18.4076687594
 31
0.0
  0
LINE
  5
2DE
330
1F
100
AcDbEntity
  8
0
  6
Continuous
 62
     7
370
    15
100
AcDbLine
 10
-111.8317978229
 20
14.4104970839
 30
0.0
 11
-112.0542884247
 21
15.2887142926
 31
0.0
  0
LINE
  5
2DF
330
1F
100
AcDbEntity
  8
0
  6
Continuous
 62
     7
370
    15
100
AcDbLine
 10
-112.0542884247
 20
15.2887142926
 30
0.0
 11
-110.927711307
 21
12.852705959
 31
0.0
  0
LINE
  5
2E0
330
1F
100
AcDbEntity
  8
0
  6
Continuous
 62
     7
370
    15
100
AcDbLine
 10
-110.927711307
 20
12.852705959
 30
0.0
 11
-111.1502019088
 21
13.7309231677
 31
0.0
  0
LINE
  5
2E1
330
1F
100
AcDbEntity
  8
0
  6
Continuous
 62
     7
370
    15
100
AcDbLine
 10
-109.2355447691
 20
9.5908419652
 30
0.0
 11
-111.1502019088
 21
13.7309231677
 31
0.0
  0
LINE
  5
2E2
330
1F
100
AcDbEntity
  8
0
  6
Continuous
 62
     7
370
    15
100
AcDbLine
 10
-108.6516851938
 20
7.5761020074
 30
0.0
 11
-109.7970437621
 21
10.0107291755
 31
0.0
  0
LINE
  5
2E3
330
1F
100
AcDbEntity
  8
0
  6
Continuous
 62
     7
370
    15
100
AcDbLine
 10
-111.8317978229
 20
14.4104970839
 30
0.0
 11
-109.7970437621
 21
10.0107291755
 31
0.0
  0
LINE
  5
2E4
330
1F
100
AcDbEntity
  8
0
  6
Continuous
 62
     7
370
    15
100
AcDbLine
 10
-109.2355447691
 20
9.5908419652
 30
0.0
 11
-61.2620579179
 21
29.6378563501
 31
0.0
  0
LINE
  5
2E5
330
1F
100
AcDbEntity
  8
0
  6
Continuous
 62
     7
370
    15
100
AcDbLine
 10
-74.2281750505
 20
29.1597871535
 30
0.0
 11
-111.1502019088
 21
13.7309231677
 31
0.0
  0
LINE
  5
2E6
330
1F
100
AcDbEntity
  8
0
  6
Continuous
 62
     7
370
    15
100
AcDbLine
 10
-65.7259186793
 20
36.1565781232
 30
0.0
 11
-73.953562723
 21
29.3254579808
 31
0.0
  0
LINE
  5
2E7
330
1F
100
AcDbEntity
  8
0
  6
Continuous
 62
     7
370
    15
100
AcDbLine
 10
-61.2620579179
 20
29.6378563501
 30
0.0
 11
-64.1556692791
 21
35.8947395046
 31
0.0
  0
LINE
  5
2E8
330
1F
100
AcDbEntity
  8
0
  6
Continuous
 62
     7
370
    15
100
AcDbLine
 10
-108.6516851938
 20
7.5761020074
 30
0.0
 11
-110.4919079273
 21
6.8071153435
 31
0.0
  0
LINE
  5
2E9
330
1F
100
AcDbEntity
  8
0
  6
Continuous
 62
     7
370
    15
100
AcDbLine
 10
-112.211707536
 20
9.8881762733
 30
0.0
 11
-112.5454434387
 21
11.2055020864
 31
0.0
  0
LINE
  5
2EA
330
1F
100
AcDbEntity
  8
0
  6
Continuous
 62
     7
370
    15
100
AcDbLine
 10
-111.6372664956
 20
9.2417425116
 30
0.0
 11
-112.5454434387
 21
11.2055020864
 31
0.0
  0
LINE
  5
2EB
330
1F
100
AcDbEntity
  8
0
  6
Continuous
 62
     7
370
    15
100
AcDbLine
 10
-110.4919079273
 20
6.8071153435
 30
0.0
 11
-111.6372664956
 21
9.2417425116
 31
0.0
  0
LINE
  5
2EC
330
1F
100
AcDbEntity
  8
0
  6
Continuous
 62
     7
370
    15
100
AcDbLine
 10
-111.7249365291
 20
8.637064891
 30
0.0
 11
-109.6949937038
 21
4.2477003625
 31
0.0
  0
LINE
  5
2ED
330
1F
100
AcDbEntity
  8
0
  6
Continuous
 62
     7
370
    15
100
AcDbLine
 10
-109.7970437621
 20
10.0107291755
 30
0.0
 11
-111.6372664956
 21
9.2417425116
 31
0.0
  0
LINE
  5
2EE
330
1F
100
AcDbEntity
  8
0
  6
Continuous
 62
     7
370
    15
100
AcDbLine
 10
-106.2178249203
 20
17.7535007082
 30
0.0
 11
-105.4576275579
 21
16.1097187773
 31
0.0
  0
LINE
  5
2EF
330
1F
100
AcDbEntity
  8
0
  6
Continuous
 62
     7
370
    15
100
AcDbLine
 10
-107.5125288819
 20
18.1773269685
 30
0.0
 11
-111.5106358749
 21
16.488893588
 31
0.0
  0
LINE
  5
2F0
330
1F
100
AcDbEntity
  8
0
  6
Continuous
 62
     7
370
    15
100
AcDbLine
 10
-110.7052207052
 20
11.9744887503
 30
0.0
 11
-112.5454434387
 21
11.2055020864
 31
0.0
  0
LINE
  5
2F1
330
1F
100
AcDbEntity
  8
0
  6
Continuous
 62
     7
370
    15
100
AcDbLine
 10
-111.8810615525
 20
14.5494055577
 30
0.0
 11
-111.8317978229
 21
14.4104970839
 31
0.0
  0
LINE
  5
2F2
330
1F
100
AcDbEntity
  8
0
  6
Continuous
 62
     7
370
    15
100
AcDbLine
 10
64.3860516343
 20
27.391042356
 30
0.0
 11
74.2943619265
 21
5.9662095027
 31
0.0
  0
LINE
  5
2F3
330
1F
100
AcDbEntity
  8
0
  6
Continuous
 62
     7
370
    15
100
AcDbLine
 10
76.282253846
 20
1.6677720445
 30
0.0
 11
78.8983658352
 21
-3.9890715989
 31
0.0
  0
LINE
  5
2F4
330
1F
100
AcDbEntity
  8
0
  6
Continuous
 62
     7
370
    15
100
AcDbLine
 10
2.1733660765
 20
1.3937950396
 30
0.0
 11
27.8846970093
 21
12.1379676002
 31
0.0
  0
LINE
  5
2F5
330
1F
100
AcDbEntity
  8
0
  6
Continuous
 62
     7
370
    15
100
AcDbLine
 10
18.540468244
 20
64.5264967449
 30
0.0
 11
36.0363702849
 21
26.6949426465
 31
0.0
  0
LINE
  5
2F6
330
1F
100
AcDbEntity
  8
0
  6
Continuous
 62
     7
370
    15
100
AcDbLine
 10
101.0507469489
 20
63.8182982279
 30
0.0
 11
71.8316078638
 21
78.3191117228
 31
0.0
  0
LINE
  5
2F7
330
1F
100
AcDbEntity
  8
0
  6
Continuous
 62
     7
370
    15
100
AcDbLine
 10
-51.3210424975
 20
-57.1133872112
 30
0.0
 11
-50.7636998406
 21
-55.2582874759
 31
0.0
  0
LINE
  5
2F8
330
1F
100
AcDbEntity
  8
0
  6
Continuous
 62
     7
370
    15
100
AcDbLine
 10
-50.0962280352
 20
-57.8929391021
 30
0.0
 11
-50.646113757
 21
-59.7195072357
 31
0.0
  0
LINE
  5
2F9
330
1F
100
AcDbEntity
  8
0
  6
Continuous
 62
     7
370
    15
100
AcDbLine
 10
-107.9116940224
 20
-59.0999277551
 30
0.0
 11
-107.8561071002
 21
-59.3193410301
 31
0.0
  0
LINE
  5
2FA
330
1F
100
AcDbEntity
  8
0
  6
Continuous
 62
     7
370
    15
100
AcDbLine
 10
-107.9031180697
 20
-60.3098426606
 30
0.0
 11
-121.4235167751
 21
-31.0745569428
 31
0.0
  0
LINE
  5
2FB
330
1F
100
AcDbEntity
  8
0
  6
Continuous
 62
     7
370
    15
100
AcDbLine
 10
-2.3958566783
 20
-0.5155778308
 30
0.0
 11
-27.3376236707
 21
-10.938167359
 31
0.0
  0
LINE
  5
2FC
330
1F
100
AcDbEntity
  8
0
  6
Continuous
 62
     7
370
    15
100
AcDbLine
 10
-117.2724491797
 20
-26.7649495368
 30
0.0
 11
-108.9127446354
 21
2.9533595002
 31
0.0
  0
ARC
  5
2FD
330
1F
100
AcDbEntity
  8
0
  6
Continuous
 62
     7
370
    15
100
AcDbCircle
 10
72.33785143
 20
13.7505624278
 30
0.0
 40
0.9095398042408434
100
AcDbArc
 50
109.2516449224
 51
201.8030088688
  0
ARC
  5
2FE
330
1F
100
AcDbEntity
  8
0
  6
Continuous
 62
     7
370
    15
100
AcDbCircle
 10
120.3440657446
 20
36.8457544445
 30
0.0
 40
1.689148778396563
100
AcDbArc
 50
205.0978539
 51
234.337421057
  0
ARC
  5
2FF
330
1F
100
AcDbEntity
  8
0
  6
Continuous
 62
     7
370
    15
100
AcDbCircle
 10
40.8079507557
 20
21.9214612693
 30
0.0
 40
0.9095398042408743
100
AcDbArc
 50
289.2516449224
 51
21.8030088688
  0
ARC
  5
300
330
1F
100
AcDbEntity
  8
0
  6
Continuous
 62
     7
370
    15
100
AcDbCircle
 10
153.8450094967
 20
-24.8061205643
 30
0.0
 40
2.189630919544135
100
AcDbArc
 50
71.0053630937
 51
137.4274362014
  0
ARC
  5
301
330
1F
100
AcDbEntity
  8
0
  6
Continuous
 62
     7
370
    15
100
AcDbCircle
 10
52.5396514314
 20
22.7650731598
 30
0.0
 40
12.71757794431684
100
AcDbArc
 50
21.3304350301
 51
24.7065400026
  0
ARC
  5
302
330
1F
100
AcDbEntity
  8
0
  6
Continuous
 62
     7
370
    15
100
AcDbCircle
 10
41.6767592279
 20
18.9750658236
 30
0.0
 40
0.7966081057083313
100
AcDbArc
 50
5.03571437
 51
14.2120489228
  0
ARC
  5
303
330
1F
100
AcDbEntity
  8
0
  6
Continuous
 62
     7
370
    15
100
AcDbCircle
 10
104.524693636
 20
66.4564065509
 30
0.0
 40
1.175189147514731
100
AcDbArc
 50
13.6973302924
 51
103.0378001063
  0
ARC
  5
304
330
1F
100
AcDbEntity
  8
0
  6
Continuous
 62
     7
370
    15
100
AcDbCircle
 10
58.5063467848
 20
27.7143806915
 30
0.0
 40
2.035187560874419
100
AcDbArc
 50
28.4607641191
 51
180.0603234179
  0
ARC
  5
305
330
1F
100
AcDbEntity
  8
0
  6
Continuous
 62
     7
370
    15
100
AcDbCircle
 10
90.322854886
 20
48.4488455924
 30
0.0
 40
2.189630919544134
100
AcDbArc
 50
71.0053630937
 51
137.4274362014
  0
ARC
  5
306
330
1F
100
AcDbEntity
  8
0
  6
Continuous
 62
     7
370
    15
100
AcDbCircle
 10
49.014150922
 20
58.7688482731
 30
0.0
 40
22.40725796363377
100
AcDbArc
 50
196.8250787823
 51
208.2723902556
  0
ARC
  5
307
330
1F
100
AcDbEntity
  8
0
  6
Continuous
 62
     7
370
    15
100
AcDbCircle
 10
83.8666098649
 20
88.3459288279
 30
0.0
 40
16.92321567420896
100
AcDbArc
 50
196.6140359559
 51
208.7438154212
  0
ARC
  5
308
330
1F
100
AcDbEntity
  8
0
  6
Continuous
 62
     7
370
    15
100
AcDbCircle
 10
28.3815956342
 20
73.251796637
 30
0.0
 40
1.119904149607325
100
AcDbArc
 50
276.0243782733
 51
292.6688210077
  0
ARC
  5
309
330
1F
100
AcDbEntity
  8
0
  6
Continuous
 62
     7
370
    15
100
AcDbCircle
 10
17.6729916602
 20
70.0455423344
 30
0.0
 40
0.9488667087380724
100
AcDbArc
 50
91.9041976744
 51
200.2541484213
  0
ARC
  5
30A
330
1F
100
AcDbEntity
  8
0
  6
Continuous
 62
     7
370
    15
100
AcDbCircle
 10
91.8169210318
 20
90.863081123
 30
0.0
 40
23.38255503810599
100
AcDbArc
 50
201.5840608386
 51
210.4185612957
  0
ARC
  5
30B
330
1F
100
AcDbEntity
  8
0
  6
Continuous
 62
     7
370
    15
100
AcDbCircle
 10
63.9539191686
 20
88.7322283696
 30
0.0
 40
0.9965483513997135
100
AcDbArc
 50
28.3249662203
 51
114.8844924642
  0
ARC
  5
30C
330
1F
100
AcDbEntity
  8
0
  6
Continuous
 62
     7
370
    15
100
AcDbCircle
 10
59.8230496972
 20
87.123938935
 30
0.0
 40
0.9052346057592787
100
AcDbArc
 50
108.9984778186
 51
201.8486770124
  0
ARC
  5
30D
330
1F
100
AcDbEntity
  8
0
  6
Continuous
 62
     7
370
    15
100
AcDbCircle
 10
-43.3096966529
 20
-13.1386978939
 30
0.0
 40
0.99249854528997
100
AcDbArc
 50
208.320095612
 51
295.1581753307
  0
ARC
  5
30E
330
1F
100
AcDbEntity
  8
0
  6
Continuous
 62
     7
370
    15
100
AcDbCircle
 10
-108.5546612903
 20
-58.9471384007
 30
0.0
 40
1.599315337597377
100
AcDbArc
 50
354.4650093562
 51
24.7990699425
  0
ARC
  5
30F
330
1F
100
AcDbEntity
  8
0
  6
Continuous
 62
     7
370
    15
100
AcDbCircle
 10
-58.3749269254
 20
-40.9619615779
 30
0.0
 40
0.9924985452899641
100
AcDbArc
 50
28.320095612
 51
115.1581753307
  0
ARC
  5
310
330
1F
100
AcDbEntity
  8
0
  6
Continuous
 62
     7
370
    15
100
AcDbCircle
 10
-85.3839458595
 20
-124.7743868733
 30
0.0
 40
2.189630919544069
100
AcDbArc
 50
71.0053630937
 51
137.4274362014
  0
ARC
  5
311
330
1F
100
AcDbEntity
  8
0
  6
Continuous
 62
     7
370
    15
100
AcDbCircle
 10
-106.872182538
 20
-59.3118424265
 30
0.0
 40
1.060892055829525
100
AcDbArc
 50
102.5567824119
 51
168.4775781435
  0
ARC
  5
312
330
1F
100
AcDbEntity
  8
0
  6
Continuous
 62
     7
370
    15
100
AcDbCircle
 10
-120.992643208
 20
-27.8556957353
 30
0.0
 40
1.244051201570532
100
AcDbArc
 50
122.31325931
 51
208.0084984495
  0
ARC
  5
313
330
1F
100
AcDbEntity
  8
0
  6
Continuous
 62
     7
370
    15
100
AcDbCircle
 10
-42.6865949529
 20
-16.2110150406
 30
0.0
 40
0.8264684790249348
100
AcDbArc
 50
204.9211921524
 51
224.2347116983
  0
ARC
  5
314
330
1F
100
AcDbEntity
  8
0
  6
Continuous
 62
     7
370
    15
100
AcDbCircle
 10
-99.2200866654
 20
-30.7567807908
 30
0.0
 40
2.189630919544018
100
AcDbArc
 50
71.0053630937
 51
137.4274362014
  0
ARC
  5
315
330
1F
100
AcDbEntity
  8
0
  6
Continuous
 62
     7
370
    15
100
AcDbCircle
 10
-61.1122425241
 20
-22.2539367561
 30
0.0
 40
2.031154193350708
100
AcDbArc
 50
27.9262123944
 51
180.5065869008
  0
ARC
  5
316
330
1F
100
AcDbEntity
  8
0
  6
Continuous
 62
     7
370
    15
100
AcDbCircle
 10
-111.9703385956
 20
1.9523575955
 30
0.0
 40
3.217279229215845
100
AcDbArc
 50
18.1275267106
 51
38.129618788
  0
ARC
  5
317
330
1F
100
AcDbEntity
  8
0
  6
Continuous
 62
     7
370
    15
100
AcDbCircle
 10
-34.5477058247
 20
23.8742912891
 30
0.0
 40
22.04397506504861
100
AcDbArc
 50
196.7861684337
 51
208.4227561855
  0
ARC
  5
318
330
1F
100
AcDbEntity
  8
0
  6
Continuous
 62
     7
370
    15
100
AcDbCircle
 10
-86.9087415993
 20
16.1777462665
 30
0.0
 40
23.38255503810632
100
AcDbArc
 50
201.5840608386
 51
210.4185612957
  0
ARC
  5
319
330
1F
100
AcDbEntity
  8
0
  6
Continuous
 62
     7
370
    15
100
AcDbCircle
 10
-45.0453431816
 20
34.4765950201
 30
0.0
 40
16.92321567420285
100
AcDbArc
 50
196.6140359559
 51
208.7438154212
  0
ARC
  5
31A
330
1F
100
AcDbEntity
  8
0
  6
Continuous
 62
     7
370
    15
100
AcDbCircle
 10
-65.0458755624
 20
35.3954832733
 30
0.0
 40
1.020648818802277
100
AcDbArc
 50
29.2851061065
 51
131.7809916868
  0
ARC
  5
31B
330
1F
100
AcDbEntity
  8
0
  6
Continuous
 62
     7
370
    15
100
AcDbCircle
 10
-74.6449560159
 20
30.1610652323
 30
0.0
 40
1.08455712818365
100
AcDbArc
 50
292.5994697697
 51
309.6048380573
  0
ARC
  5
31C
330
1F
100
AcDbEntity
  8
0
  6
Continuous
 62
     7
370
    15
100
AcDbCircle
 10
-88.7489643328
 20
15.4087596026
 30
0.0
 40
23.38255503810553
100
AcDbArc
 50
201.5840608386
 51
210.4185612957
  0
ARC
  5
31D
330
1F
100
AcDbEntity
  8
0
  6
Continuous
 62
     7
370
    15
100
AcDbCircle
 10
-103.2641547991
 20
12.6491585898
 30
0.0
 40
9.363851949441598
100
AcDbArc
 50
197.1488667563
 51
205.3702581989
  0
ARC
  5
31E
330
1F
100
AcDbEntity
  8
0
  6
Continuous
 62
     7
370
    15
100
AcDbCircle
 10
-121.0119031547
 20
-0.963321167
 30
0.0
 40
12.45902022231966
100
AcDbArc
 50
22.3285215472
 51
24.7243357724
  0
ARC
  5
31F
330
1F
100
AcDbEntity
  8
0
  6
Continuous
 62
     7
370
    15
100
AcDbCircle
 10
-107.0880313925
 20
17.2846382001
 30
0.0
 40
0.9884793147969689
100
AcDbArc
 50
28.3155453882
 51
115.4323429696
  0
ARC
  5
320
330
1F
100
AcDbEntity
  8
0
  6
Continuous
 62
     7
370
    15
100
AcDbCircle
 10
-111.2055219958
 20
15.6274638331
 30
0.0
 40
0.9138685364435011
100
AcDbArc
 50
109.5038771714
 51
201.7573414559
  0
ARC
  5
321
330
1F
100
AcDbEntity
  8
0
  6
Continuous
 62
     7
370
    15
100
AcDbCircle
 10
-108.6352936039
 20
-59.4347467042
 30
0.0
 40
0.7973080226831567
100
AcDbArc
 50
14.7801110691
 51
24.8305950568
  0
MTEXT
  5
323
330
1F
100
AcDbEntity
  8
0
  6
Continuous
 62
     7
100
AcDbMText
 10
-122.2366944096
 20
-149.6204940767
 30
0.0
 40
4.83362
 41
0.0
 71
     1
 72
     1
  1
SolidWorks Educational Edition.
  7
SLDTEXTSTYLE0
 73
     1
 44
1.0
  0
MTEXT
  5
324
330
1F
100
AcDbEntity
  8
0
  6
Continuous
 62
     7
100
AcDbMText
 10
-122.2366944096
 20
-156.8709240767
 30
0.0
 40
4.83362
 41
0.0
 71
     1
 72
     1
  1
For Instructional Use Only.
  7
SLDTEXTSTYLE0
 73
     1
 44
1.0
  0
ENDSEC
  0
SECTION
  2
OBJECTS
  0
DICTIONARY
  5
C
330
0
100
AcDbDictionary
281
     1
  3
ACAD_GROUP
350
D
  3
ACAD_LAYOUT
350
1A
  3
ACAD_MLINESTYLE
350
17
  3
ACAD_PLOTSETTINGS
350
19
  3
ACAD_PLOTSTYLENAME
350
E
  0
DICTIONARY
  5
D
102
{ACAD_REACTORS
330
C
102
}
330
C
100
AcDbDictionary
281
     1
  0
DICTIONARY
  5
1A
102
{ACAD_REACTORS
330
C
102
}
330
C
100
AcDbDictionary
281
     1
  3
Layout1
350
1E
  3
Layout2
350
26
  3
Model
350
22
  0
DICTIONARY
  5
17
102
{ACAD_REACTORS
330
C
102
}
330
C
100
AcDbDictionary
281
     1
  3
Standard
350
18
  0
DICTIONARY
  5
19
102
{ACAD_REACTORS
330
C
102
}
330
C
100
AcDbDictionary
281
     1
  0
ACDBDICTIONARYWDFLT
  5
E
102
{ACAD_REACTORS
330
C
102
}
330
C
100
AcDbDictionary
281
     1
  3
Normal
350
F
100
AcDbDictionaryWithDefault
340
F
  0
LAYOUT
  5
1E
102
{ACAD_REACTORS
330
1A
102
}
330
1A
100
AcDbPlotSettings
  1

  2
none_device
  4

  6

 40
0.0
 41
0.0
 42
0.0
 43
0.0
 44
0.0
 45
0.0
 46
0.0
 47
0.0
 48
0.0
 49
0.0
140
0.0
141
0.0
142
1.0
143
1.0
 70
   688
 72
     0
 73
     0
 74
     5
  7

 75
    16
147
1.0
148
0.0
149
0.0
100
AcDbLayout
  1
Layout1
 70
     1
 71
     1
 10
0.0
 20
0.0
 11
420.0
 21
297.0
 12
0.0
 22
0.0
 32
0.0
 14
1.0000000000E+20
 24
1.0000000000E+20
 34
1.0000000000E+20
 15
-1.0000000000E+20
 25
-1.0000000000E+20
 35
-1.0000000000E+20
146
0.0
 13
0.0
 23
0.0
 33
0.0
 16
1.0
 26
0.0
 36
0.0
 17
0.0
 27
1.0
 37
0.0
 76
     0
330
1B
  0
LAYOUT
  5
26
102
{ACAD_REACTORS
330
1A
102
}
330
1A
100
AcDbPlotSettings
  1

  2
none_device
  4

  6

 40
0.0
 41
0.0
 42
0.0
 43
0.0
 44
0.0
 45
0.0
 46
0.0
 47
0.0
 48
0.0
 49
0.0
140
0.0
141
0.0
142
1.0
143
1.0
 70
   688
 72
     0
 73
     0
 74
     5
  7

 75
    16
147
1.0
148
0.0
149
0.0
100
AcDbLayout
  1
Layout2
 70
     1
 71
     2
 10
0.0
 20
0.0
 11
0.0
 21
0.0
 12
0.0
 22
0.0
 32
0.0
 14
0.0
 24
0.0
 34
0.0
 15
0.0
 25
0.0
 35
0.0
146
0.0
 13
0.0
 23
0.0
 33
0.0
 16
1.0
 26
0.0
 36
0.0
 17
0.0
 27
1.0
 37
0.0
 76
     0
330
23
  0
LAYOUT
  5
22
102
{ACAD_REACTORS
330
1A
102
}
330
1A
100
AcDbPlotSettings
  1

  2
none_device
  4
ANSI_A_(11.00_x_8.50_Inches)
  6

 40
6.35
 41
19.05
 42
6.35000508
 43
19.05000254
 44
279.4
 45
215.9
 46
106.6952382582
 47
115.2991260452
 48
0.0
 49
0.0
140
0.0
141
0.0
142
0.0353082299
143
1.0
 70
  1696
 72
     0
 73
     0
 74
     0
  7

 75
     0
147
0.0179189148
148
0.0
149
0.0
100
AcDbLayout
  1
Model
 70
     1
 71
     0
 10
0.0
 20
0.0
 11
420.0
 21
297.0
 12
0.0
 22
0.0
 32
0.0
 14
-122.2366944096
 24
-148.6009276851
 34
0.0
 15
181.6789247872
 25
89.728776721
 35
0.0
146
0.0
 13
0.0
 23
0.0
 33
0.0
 16
1.0
 26
0.0
 36
0.0
 17
0.0
 27
1.0
 37
0.0
 76
     0
330
1F
331
29
  0
MLINESTYLE
  5
18
102
{ACAD_REACTORS
330
17
102
}
330
17
100
AcDbMlineStyle
  2
Standard
 70
     0
  3

 62
   256
 51
90.0
 52
90.0
 71
     2
 49
0.5
 62
   256
  6
BYLAYER
 49
-0.5
 62
   256
  6
BYLAYER
  0
ACDBPLACEHOLDER
  5
F
102
{ACAD_REACTORS
330
E
102
}
330
E
  0
ENDSEC
  0
EOF
